G75*
G70*
%OFA0B0*%
%FSLAX24Y24*%
%IPPOS*%
%LPD*%
%AMOC8*
5,1,8,0,0,1.08239X$1,22.5*
%
%ADD10C,0.0160*%
%ADD11C,0.0120*%
%ADD12C,0.0050*%
%ADD13C,0.0060*%
%ADD14C,0.0520*%
%ADD15OC8,0.0520*%
%ADD16OC8,0.0630*%
%ADD17C,0.0124*%
%ADD18C,0.0620*%
%ADD19OC8,0.1240*%
%ADD20C,0.0984*%
%ADD21R,0.0740X0.0740*%
%ADD22OC8,0.1500*%
%ADD23C,0.0860*%
%ADD24C,0.0650*%
%ADD25C,0.0660*%
%ADD26C,0.0104*%
%ADD27C,0.0100*%
%ADD28C,0.1500*%
%ADD29C,0.1969*%
D10*
X002202Y001021D02*
X013658Y001021D01*
X014133Y001357D02*
X014074Y001451D01*
X013893Y001581D01*
X013676Y001631D01*
X013456Y001594D01*
X013435Y001581D01*
X002307Y001581D01*
X002302Y001583D01*
X002197Y001581D01*
X002189Y001581D01*
X002121Y001584D01*
X001986Y001621D01*
X001867Y001695D01*
X001774Y001799D01*
X001713Y001925D01*
X001691Y002063D01*
X001691Y002072D01*
X001699Y002090D01*
X001699Y002167D01*
X001708Y002243D01*
X001699Y002278D01*
X001699Y002735D01*
X002139Y002295D01*
X002926Y002295D01*
X003482Y002852D01*
X003482Y003639D01*
X002926Y004195D01*
X002139Y004195D01*
X001699Y003755D01*
X001699Y006854D01*
X001699Y007156D01*
X001613Y007362D01*
X001493Y007482D01*
X001493Y007671D01*
X001626Y007594D01*
X001928Y007514D01*
X002239Y007514D01*
X002541Y007594D01*
X002811Y007750D01*
X003031Y007971D01*
X003187Y008241D01*
X003268Y008542D01*
X003268Y008854D01*
X003187Y009155D01*
X003031Y009425D01*
X002811Y009646D01*
X002541Y009801D01*
X002239Y009882D01*
X001928Y009882D01*
X001626Y009801D01*
X001493Y009724D01*
X001493Y009796D01*
X001574Y009877D01*
X001659Y010083D01*
X001659Y013621D01*
X002103Y013177D01*
X002890Y013177D01*
X003447Y013734D01*
X003447Y014521D01*
X002890Y015077D01*
X002103Y015077D01*
X001659Y014633D01*
X001659Y014852D01*
X001661Y014857D01*
X001659Y014962D01*
X001659Y014971D01*
X001663Y015038D01*
X001700Y015173D01*
X001773Y015292D01*
X001877Y015386D01*
X002003Y015446D01*
X002141Y015469D01*
X002151Y015468D01*
X002169Y015461D01*
X002245Y015461D01*
X002322Y015451D01*
X002356Y015461D01*
X024221Y015461D01*
X024122Y015362D01*
X024017Y015108D01*
X024017Y014832D01*
X024122Y014578D01*
X024317Y014383D01*
X024471Y014319D01*
X024471Y012581D01*
X024437Y012546D01*
X021219Y012546D01*
X021200Y012594D01*
X021052Y012741D01*
X020859Y012821D01*
X020667Y012821D01*
X020730Y012847D01*
X020879Y012996D01*
X020960Y013191D01*
X020960Y013402D01*
X020879Y013597D01*
X020730Y013746D01*
X020535Y013826D01*
X020324Y013826D01*
X020130Y013746D01*
X019981Y013597D01*
X019900Y013402D01*
X019900Y013191D01*
X019981Y012996D01*
X020130Y012847D01*
X020192Y012821D01*
X020001Y012821D01*
X019808Y012741D01*
X019660Y012594D01*
X019580Y012401D01*
X019580Y012192D01*
X019660Y011999D01*
X019808Y011851D01*
X019941Y011796D01*
X019808Y011741D01*
X019660Y011594D01*
X019641Y011546D01*
X019553Y011546D01*
X019462Y011508D01*
X019391Y011438D01*
X019234Y011280D01*
X019196Y011189D01*
X019196Y011089D01*
X019196Y009239D01*
X019234Y009147D01*
X019304Y009077D01*
X019983Y008398D01*
X019983Y008211D01*
X019902Y008129D01*
X019902Y008455D01*
X019632Y008725D01*
X019251Y008725D01*
X019144Y008618D01*
X019144Y008787D01*
X019106Y008879D01*
X019036Y008949D01*
X018705Y009281D01*
X018705Y009695D01*
X018403Y009996D01*
X017976Y009996D01*
X017675Y009695D01*
X017675Y009268D01*
X017976Y008966D01*
X018028Y008966D01*
X018008Y008958D01*
X017879Y008829D01*
X017809Y008660D01*
X017809Y007957D01*
X017852Y007852D01*
X017098Y007098D01*
X014653Y007098D01*
X014553Y007098D01*
X014462Y007059D01*
X013674Y006272D01*
X013604Y006202D01*
X013566Y006110D01*
X013566Y005921D01*
X013529Y005958D01*
X013360Y006028D01*
X013177Y006028D01*
X013008Y005958D01*
X012879Y005829D01*
X012809Y005660D01*
X012809Y004957D01*
X012879Y004788D01*
X013008Y004658D01*
X013177Y004588D01*
X013211Y004588D01*
X013200Y004578D01*
X011675Y004578D01*
X009184Y007069D01*
X009184Y007921D01*
X009146Y008013D01*
X009075Y008083D01*
X008791Y008367D01*
X008721Y008437D01*
X008629Y008475D01*
X008441Y008475D01*
X008199Y008717D01*
X007818Y008717D01*
X007549Y008448D01*
X007549Y008429D01*
X004355Y008429D01*
X004256Y008429D01*
X004164Y008391D01*
X003525Y007752D01*
X002946Y007752D01*
X002828Y007635D01*
X002828Y006729D01*
X002946Y006612D01*
X003851Y006612D01*
X003968Y006729D01*
X003968Y007488D01*
X004409Y007929D01*
X007686Y007929D01*
X007818Y007797D01*
X008199Y007797D01*
X008378Y007976D01*
X008476Y007976D01*
X008684Y007768D01*
X008684Y006916D01*
X008722Y006824D01*
X008792Y006754D01*
X011430Y004116D01*
X011522Y004078D01*
X011621Y004078D01*
X011793Y004078D01*
X011585Y003991D01*
X011317Y003724D01*
X011173Y003375D01*
X011173Y002997D01*
X011317Y002648D01*
X011585Y002381D01*
X011934Y002236D01*
X012312Y002236D01*
X012661Y002381D01*
X012928Y002648D01*
X013073Y002997D01*
X013073Y003375D01*
X012928Y003724D01*
X012661Y003991D01*
X012452Y004078D01*
X013354Y004078D01*
X013401Y004098D01*
X013401Y003445D01*
X013882Y002965D01*
X014561Y002965D01*
X015041Y003445D01*
X015041Y004124D01*
X014561Y004605D01*
X013934Y004605D01*
X014017Y004687D01*
X014038Y004672D01*
X014100Y004640D01*
X014165Y004619D01*
X014234Y004608D01*
X014268Y004608D01*
X014268Y005308D01*
X014269Y005308D01*
X014269Y005308D01*
X014708Y005308D01*
X014708Y005014D01*
X014698Y004945D01*
X014676Y004879D01*
X014645Y004818D01*
X014604Y004762D01*
X014555Y004713D01*
X014499Y004672D01*
X014437Y004640D01*
X014372Y004619D01*
X014303Y004608D01*
X014269Y004608D01*
X014269Y005308D01*
X014708Y005308D01*
X014708Y005603D01*
X014698Y005671D01*
X014676Y005737D01*
X014645Y005799D01*
X014604Y005855D01*
X014555Y005904D01*
X014499Y005944D01*
X014437Y005976D01*
X014372Y005997D01*
X014303Y006008D01*
X014269Y006008D01*
X014269Y005309D01*
X014268Y005309D01*
X014268Y006008D01*
X014234Y006008D01*
X014165Y005997D01*
X014100Y005976D01*
X014070Y005961D01*
X014707Y006598D01*
X017152Y006598D01*
X017251Y006598D01*
X017343Y006636D01*
X018296Y007588D01*
X018360Y007588D01*
X018529Y007658D01*
X018644Y007774D01*
X018644Y007345D01*
X017328Y006028D01*
X017177Y006028D01*
X017008Y005958D01*
X016879Y005829D01*
X016809Y005660D01*
X016809Y005558D01*
X016728Y005558D01*
X016728Y005660D01*
X016658Y005829D01*
X016529Y005958D01*
X016360Y006028D01*
X016177Y006028D01*
X016008Y005958D01*
X015879Y005829D01*
X015809Y005660D01*
X015809Y004957D01*
X015879Y004788D01*
X016008Y004658D01*
X016138Y004605D01*
X015882Y004605D01*
X015401Y004124D01*
X015401Y003445D01*
X015882Y002965D01*
X016561Y002965D01*
X017041Y003445D01*
X017041Y003657D01*
X017344Y003960D01*
X017745Y003960D01*
X017726Y003952D01*
X017459Y003685D01*
X017315Y003336D01*
X017315Y002958D01*
X017459Y002609D01*
X017726Y002341D01*
X018076Y002197D01*
X018454Y002197D01*
X018803Y002341D01*
X019070Y002609D01*
X019215Y002958D01*
X019215Y003336D01*
X019070Y003685D01*
X018803Y003952D01*
X018601Y004036D01*
X019469Y004903D01*
X019539Y004974D01*
X019578Y005066D01*
X019578Y007098D01*
X020445Y007966D01*
X020483Y008058D01*
X020483Y008157D01*
X020483Y008451D01*
X020483Y008551D01*
X020445Y008643D01*
X020319Y008769D01*
X020324Y008766D01*
X020535Y008766D01*
X020730Y008847D01*
X020879Y008996D01*
X020960Y009191D01*
X020960Y009402D01*
X020879Y009597D01*
X020730Y009746D01*
X020619Y009792D01*
X020794Y009792D01*
X020873Y009804D01*
X020949Y009829D01*
X021019Y009865D01*
X021084Y009911D01*
X021140Y009968D01*
X021186Y010032D01*
X021223Y010103D01*
X021247Y010178D01*
X021259Y010257D01*
X021259Y010268D01*
X020458Y010268D01*
X020458Y010325D01*
X021259Y010325D01*
X021259Y010336D01*
X021247Y010415D01*
X021223Y010490D01*
X021186Y010561D01*
X021140Y010625D01*
X021084Y010681D01*
X021019Y010728D01*
X020949Y010764D01*
X020888Y010784D01*
X021052Y010851D01*
X021200Y010999D01*
X021279Y011192D01*
X021279Y011401D01*
X021200Y011594D01*
X021052Y011741D01*
X020919Y011796D01*
X021052Y011851D01*
X021200Y011999D01*
X021219Y012046D01*
X024437Y012046D01*
X024459Y012024D01*
X024459Y010693D01*
X024317Y010635D01*
X024122Y010440D01*
X024017Y010186D01*
X024017Y009910D01*
X024122Y009656D01*
X024317Y009461D01*
X024571Y009356D01*
X024847Y009356D01*
X025101Y009461D01*
X025296Y009656D01*
X025401Y009910D01*
X025401Y010186D01*
X025296Y010440D01*
X025101Y010635D01*
X024959Y010693D01*
X024959Y012177D01*
X024921Y012269D01*
X024894Y012296D01*
X024933Y012336D01*
X024971Y012428D01*
X024971Y014329D01*
X025101Y014383D01*
X025296Y014578D01*
X025401Y014832D01*
X025401Y015108D01*
X025296Y015362D01*
X025197Y015461D01*
X026029Y015461D01*
X025983Y015414D01*
X025929Y015344D01*
X025885Y015268D01*
X025851Y015187D01*
X025829Y015101D01*
X025820Y015038D01*
X026421Y015038D01*
X026421Y014902D01*
X025820Y014902D01*
X025829Y014839D01*
X025851Y014754D01*
X025885Y014672D01*
X025929Y014596D01*
X025983Y014526D01*
X026045Y014464D01*
X026115Y014410D01*
X026191Y014366D01*
X026273Y014332D01*
X026358Y014309D01*
X026421Y014301D01*
X026421Y014902D01*
X026557Y014902D01*
X026557Y014301D01*
X026621Y014309D01*
X026706Y014332D01*
X026787Y014366D01*
X026863Y014410D01*
X026933Y014464D01*
X026996Y014526D01*
X027049Y014596D01*
X027093Y014672D01*
X027127Y014754D01*
X027150Y014839D01*
X027158Y014902D01*
X026557Y014902D01*
X026557Y015038D01*
X027158Y015038D01*
X027150Y015101D01*
X027127Y015187D01*
X027093Y015268D01*
X027049Y015344D01*
X026996Y015414D01*
X026949Y015461D01*
X028434Y015461D01*
X028439Y015459D01*
X028544Y015461D01*
X028553Y015461D01*
X028621Y015457D01*
X028756Y015420D01*
X028875Y015347D01*
X028968Y015243D01*
X029029Y015117D01*
X029051Y014979D01*
X029051Y014969D01*
X029043Y014951D01*
X029043Y014874D01*
X029034Y014798D01*
X029043Y014764D01*
X029043Y010241D01*
X029032Y010177D01*
X029043Y010130D01*
X029043Y010043D01*
X029128Y009837D01*
X029286Y009680D01*
X029446Y009614D01*
X029446Y009428D01*
X029307Y009567D01*
X029037Y009723D01*
X028735Y009803D01*
X028424Y009803D01*
X028122Y009723D01*
X027852Y009567D01*
X027632Y009346D01*
X027476Y009076D01*
X027395Y008775D01*
X027395Y008463D01*
X027476Y008162D01*
X027632Y007892D01*
X027852Y007672D01*
X028122Y007516D01*
X028424Y007435D01*
X028735Y007435D01*
X029037Y007516D01*
X029307Y007672D01*
X029446Y007811D01*
X029446Y007623D01*
X029425Y007603D01*
X029335Y007539D01*
X029286Y007519D01*
X029252Y007485D01*
X029212Y007460D01*
X029174Y007407D01*
X029128Y007362D01*
X029110Y007318D01*
X029083Y007279D01*
X029068Y007216D01*
X029043Y007156D01*
X029043Y007108D01*
X029032Y007062D01*
X029043Y006998D01*
X029043Y003723D01*
X028516Y004250D01*
X027729Y004250D01*
X027173Y003694D01*
X027173Y002907D01*
X027729Y002350D01*
X028516Y002350D01*
X029043Y002877D01*
X029043Y002190D01*
X029041Y002185D01*
X029043Y002079D01*
X029043Y002071D01*
X029040Y002003D01*
X029003Y001868D01*
X028929Y001749D01*
X028825Y001656D01*
X028699Y001595D01*
X028561Y001573D01*
X028551Y001573D01*
X028533Y001581D01*
X028457Y001581D01*
X028381Y001590D01*
X028346Y001581D01*
X023010Y001581D01*
X023054Y001625D01*
X023054Y002109D01*
X022919Y002244D01*
X022729Y002244D01*
X022677Y002192D01*
X022626Y002244D01*
X022435Y002244D01*
X022198Y002244D01*
X022052Y002244D01*
X021952Y002144D01*
X021852Y002244D01*
X021778Y002317D01*
X021606Y002317D01*
X021606Y002329D01*
X021472Y002464D01*
X021281Y002464D01*
X021146Y002329D01*
X021146Y002259D01*
X021015Y002390D01*
X020824Y002390D01*
X020803Y002369D01*
X020781Y002390D01*
X020591Y002390D01*
X020517Y002390D01*
X020382Y002256D01*
X020382Y002244D01*
X020321Y002244D01*
X020226Y002244D01*
X020130Y002244D01*
X020105Y002219D01*
X020081Y002244D01*
X019890Y002244D01*
X019839Y002192D01*
X019787Y002244D01*
X019688Y002244D01*
X019688Y002329D01*
X019553Y002464D01*
X019363Y002464D01*
X019228Y002329D01*
X019228Y002244D01*
X019049Y002244D01*
X018829Y002244D01*
X018694Y002109D01*
X018694Y001918D01*
X018694Y001815D01*
X018694Y001625D01*
X018694Y001581D01*
X017031Y001581D01*
X017010Y001594D01*
X016790Y001631D01*
X016573Y001581D01*
X016392Y001451D01*
X016333Y001357D01*
X016249Y001238D01*
X016072Y001060D01*
X016002Y001060D01*
X016181Y001239D01*
X016337Y001509D01*
X016417Y001810D01*
X016417Y002122D01*
X016337Y002423D01*
X016181Y002693D01*
X015960Y002913D01*
X015690Y003069D01*
X015389Y003150D01*
X015077Y003150D01*
X014776Y003069D01*
X014506Y002913D01*
X014285Y002693D01*
X014130Y002423D01*
X014049Y002122D01*
X014049Y001810D01*
X014130Y001509D01*
X014285Y001239D01*
X014464Y001060D01*
X014394Y001060D01*
X014217Y001238D01*
X014133Y001357D01*
X014169Y001306D02*
X014246Y001306D01*
X014307Y001147D02*
X014377Y001147D01*
X014155Y001464D02*
X014056Y001464D01*
X014099Y001623D02*
X013709Y001623D01*
X013629Y001623D02*
X001983Y001623D01*
X001789Y001782D02*
X014056Y001782D01*
X014049Y001940D02*
X001711Y001940D01*
X001699Y002099D02*
X014049Y002099D01*
X014085Y002257D02*
X012363Y002257D01*
X012696Y002416D02*
X014128Y002416D01*
X014217Y002574D02*
X012854Y002574D01*
X012963Y002733D02*
X014325Y002733D01*
X014484Y002891D02*
X013029Y002891D01*
X013073Y003050D02*
X013796Y003050D01*
X013638Y003208D02*
X013073Y003208D01*
X013073Y003367D02*
X013479Y003367D01*
X013401Y003526D02*
X013011Y003526D01*
X012945Y003684D02*
X013401Y003684D01*
X013401Y003843D02*
X012810Y003843D01*
X012638Y004001D02*
X013401Y004001D01*
X013063Y004635D02*
X012474Y004635D01*
X012529Y004658D02*
X012658Y004788D01*
X012728Y004957D01*
X012728Y005660D01*
X012658Y005829D01*
X012550Y005937D01*
X013211Y006598D01*
X013865Y006598D01*
X013957Y006636D01*
X014028Y006706D01*
X014430Y007108D01*
X014500Y007178D01*
X014538Y007270D01*
X014538Y007667D01*
X014658Y007788D01*
X014728Y007957D01*
X014728Y008660D01*
X014658Y008829D01*
X014529Y008958D01*
X014490Y008974D01*
X014783Y009268D01*
X014783Y009695D01*
X014482Y009996D01*
X014055Y009996D01*
X013754Y009695D01*
X013754Y009381D01*
X013389Y009016D01*
X013360Y009028D01*
X013177Y009028D01*
X013008Y008958D01*
X012879Y008829D01*
X012809Y008660D01*
X012809Y007957D01*
X012879Y007788D01*
X012892Y007774D01*
X012649Y007531D01*
X012108Y007531D01*
X011469Y008170D01*
X011469Y008448D01*
X011199Y008717D01*
X010818Y008717D01*
X010549Y008448D01*
X010549Y008066D01*
X010818Y007797D01*
X011135Y007797D01*
X011793Y007139D01*
X011863Y007069D01*
X011955Y007031D01*
X012703Y007031D01*
X012802Y007031D01*
X012894Y007069D01*
X013406Y007581D01*
X013452Y007626D01*
X013529Y007658D01*
X013658Y007788D01*
X013728Y007957D01*
X013728Y008649D01*
X013857Y008777D01*
X013809Y008660D01*
X013809Y007957D01*
X013879Y007788D01*
X014008Y007658D01*
X014038Y007646D01*
X014038Y007424D01*
X013712Y007098D01*
X013057Y007098D01*
X012965Y007059D01*
X012895Y006989D01*
X012057Y006151D01*
X012019Y006059D01*
X012019Y005962D01*
X012008Y005958D01*
X011879Y005829D01*
X011809Y005660D01*
X011809Y004957D01*
X011879Y004788D01*
X012008Y004658D01*
X012177Y004588D01*
X012360Y004588D01*
X012529Y004658D01*
X012661Y004794D02*
X012876Y004794D01*
X012810Y004952D02*
X012727Y004952D01*
X012728Y005111D02*
X012809Y005111D01*
X012809Y005270D02*
X012728Y005270D01*
X012728Y005428D02*
X012809Y005428D01*
X012809Y005587D02*
X012728Y005587D01*
X012693Y005745D02*
X012844Y005745D01*
X012954Y005904D02*
X012583Y005904D01*
X012675Y006062D02*
X013566Y006062D01*
X013623Y006221D02*
X012834Y006221D01*
X012992Y006379D02*
X013781Y006379D01*
X013674Y006272D02*
X013674Y006272D01*
X013940Y006538D02*
X013151Y006538D01*
X012602Y006696D02*
X009557Y006696D01*
X009715Y006538D02*
X010789Y006538D01*
X010826Y006575D02*
X010557Y006306D01*
X010557Y005925D01*
X010826Y005655D01*
X011207Y005655D01*
X011476Y005925D01*
X011476Y006306D01*
X011207Y006575D01*
X010826Y006575D01*
X010803Y006762D02*
X010985Y006762D01*
X011167Y006762D01*
X011425Y007020D01*
X011425Y007202D01*
X011425Y007384D01*
X011167Y007642D01*
X010985Y007642D01*
X010803Y007642D01*
X010545Y007384D01*
X010545Y007202D01*
X010985Y007202D01*
X010985Y007642D01*
X010985Y007202D01*
X010985Y007202D01*
X010985Y007202D01*
X011425Y007202D01*
X010985Y007202D01*
X010985Y007202D01*
X010545Y007202D01*
X010545Y007020D01*
X010803Y006762D01*
X010710Y006855D02*
X009398Y006855D01*
X009239Y007014D02*
X010551Y007014D01*
X010545Y007172D02*
X009184Y007172D01*
X009184Y007331D02*
X010545Y007331D01*
X010650Y007489D02*
X009184Y007489D01*
X009184Y007648D02*
X011284Y007648D01*
X011320Y007489D02*
X011443Y007489D01*
X011425Y007331D02*
X011601Y007331D01*
X011760Y007172D02*
X011425Y007172D01*
X011419Y007014D02*
X012920Y007014D01*
X012998Y007172D02*
X013787Y007172D01*
X013945Y007331D02*
X013156Y007331D01*
X013315Y007489D02*
X014038Y007489D01*
X014033Y007648D02*
X013504Y007648D01*
X013666Y007806D02*
X013871Y007806D01*
X013809Y007965D02*
X013728Y007965D01*
X013728Y008123D02*
X013809Y008123D01*
X013809Y008282D02*
X013728Y008282D01*
X013728Y008440D02*
X013809Y008440D01*
X013809Y008599D02*
X013728Y008599D01*
X013837Y008757D02*
X013849Y008757D01*
X013448Y009075D02*
X012590Y009075D01*
X012529Y008958D02*
X012490Y008974D01*
X012783Y009268D01*
X012783Y009695D01*
X012482Y009996D01*
X012200Y009996D01*
X012541Y010338D01*
X012821Y010338D01*
X012921Y010338D01*
X013012Y010376D01*
X013367Y010730D01*
X013437Y010800D01*
X013475Y010892D01*
X013475Y012096D01*
X013582Y012140D01*
X013717Y012276D01*
X013853Y012140D01*
X014084Y012044D01*
X014335Y012044D01*
X014566Y012140D01*
X014744Y012317D01*
X014839Y012549D01*
X014839Y012800D01*
X014744Y013031D01*
X014566Y013208D01*
X014463Y013251D01*
X015924Y013251D01*
X015821Y013208D01*
X015644Y013031D01*
X015548Y012800D01*
X015548Y012549D01*
X015644Y012317D01*
X015821Y012140D01*
X016053Y012044D01*
X016303Y012044D01*
X016535Y012140D01*
X016670Y012276D01*
X016805Y012140D01*
X017037Y012044D01*
X017288Y012044D01*
X017519Y012140D01*
X017696Y012317D01*
X017792Y012549D01*
X017792Y012800D01*
X017696Y013031D01*
X017519Y013208D01*
X017384Y013264D01*
X017374Y013288D01*
X017020Y013643D01*
X016949Y013713D01*
X016858Y013751D01*
X013590Y013751D01*
X013490Y013751D01*
X013399Y013713D01*
X013084Y013398D01*
X013013Y013328D01*
X012984Y013256D01*
X012868Y013208D01*
X012691Y013031D01*
X012595Y012800D01*
X012595Y012549D01*
X012691Y012317D01*
X012868Y012140D01*
X012975Y012096D01*
X012975Y011046D01*
X012767Y010838D01*
X012388Y010838D01*
X012296Y010800D01*
X012232Y010736D01*
X012232Y010892D01*
X011963Y011162D01*
X011582Y011162D01*
X011349Y010929D01*
X011349Y014343D01*
X011349Y014443D01*
X011311Y014535D01*
X010992Y014854D01*
X010990Y015155D01*
X010718Y015422D01*
X010337Y015420D01*
X010070Y015149D01*
X010073Y014767D01*
X010344Y014500D01*
X010637Y014502D01*
X010849Y014290D01*
X010849Y011006D01*
X010594Y010751D01*
X010486Y010796D01*
X010619Y010851D01*
X010767Y010999D01*
X010846Y011192D01*
X010846Y011401D01*
X010767Y011594D01*
X010619Y011741D01*
X010455Y011809D01*
X010515Y011829D01*
X010586Y011865D01*
X010650Y011911D01*
X010707Y011968D01*
X010753Y012032D01*
X010789Y012103D01*
X010814Y012178D01*
X010826Y012257D01*
X010826Y012268D01*
X010025Y012268D01*
X010025Y012325D01*
X010826Y012325D01*
X010826Y012336D01*
X010814Y012415D01*
X010789Y012490D01*
X010753Y012561D01*
X010707Y012625D01*
X010650Y012681D01*
X010586Y012728D01*
X010515Y012764D01*
X010440Y012789D01*
X010361Y012801D01*
X010186Y012801D01*
X010297Y012847D01*
X010446Y012996D01*
X010527Y013191D01*
X010527Y013402D01*
X010446Y013597D01*
X010297Y013746D01*
X010102Y013826D01*
X009891Y013826D01*
X009697Y013746D01*
X009548Y013597D01*
X009467Y013402D01*
X009467Y013191D01*
X009548Y012996D01*
X009697Y012847D01*
X009808Y012801D01*
X009632Y012801D01*
X009554Y012789D01*
X009478Y012764D01*
X009407Y012728D01*
X009343Y012681D01*
X009287Y012625D01*
X009240Y012561D01*
X009204Y012490D01*
X009180Y012415D01*
X009167Y012336D01*
X009167Y012325D01*
X009968Y012325D01*
X009968Y012268D01*
X009167Y012268D01*
X009167Y012257D01*
X009180Y012178D01*
X009204Y012103D01*
X009240Y012032D01*
X009287Y011968D01*
X009343Y011911D01*
X009407Y011865D01*
X009478Y011829D01*
X009538Y011809D01*
X009375Y011741D01*
X009227Y011594D01*
X009147Y011401D01*
X009147Y011192D01*
X009227Y010999D01*
X009375Y010851D01*
X009508Y010796D01*
X009375Y010741D01*
X009227Y010594D01*
X009147Y010401D01*
X009147Y010192D01*
X009206Y010050D01*
X008644Y010050D01*
X007422Y011272D01*
X007330Y011310D01*
X007231Y011310D01*
X005223Y011310D01*
X005131Y011272D01*
X005061Y011202D01*
X004726Y010867D01*
X004688Y010775D01*
X004688Y010760D01*
X004485Y010760D01*
X004368Y010643D01*
X004368Y009737D01*
X004485Y009620D01*
X005391Y009620D01*
X005508Y009737D01*
X005508Y010643D01*
X005391Y010760D01*
X005326Y010760D01*
X005376Y010810D01*
X007177Y010810D01*
X008328Y009659D01*
X008399Y009588D01*
X008490Y009550D01*
X009528Y009550D01*
X002906Y009550D01*
X002910Y009620D02*
X002793Y009737D01*
X002793Y010643D01*
X002910Y010760D01*
X003816Y010760D01*
X003933Y010643D01*
X003933Y009737D01*
X003816Y009620D01*
X002910Y009620D01*
X002821Y009709D02*
X002701Y009709D01*
X002793Y009867D02*
X002295Y009867D01*
X001872Y009867D02*
X001564Y009867D01*
X001636Y010026D02*
X002793Y010026D01*
X002793Y010184D02*
X001659Y010184D01*
X001659Y010343D02*
X002793Y010343D01*
X002793Y010501D02*
X001659Y010501D01*
X001659Y010660D02*
X002810Y010660D01*
X003916Y010660D02*
X004385Y010660D01*
X004368Y010501D02*
X003933Y010501D01*
X003933Y010343D02*
X004368Y010343D01*
X004368Y010184D02*
X003933Y010184D01*
X003933Y010026D02*
X004368Y010026D01*
X004368Y009867D02*
X003933Y009867D01*
X003904Y009709D02*
X004396Y009709D01*
X005479Y009709D02*
X005971Y009709D01*
X005943Y009737D02*
X006060Y009620D01*
X006965Y009620D01*
X007083Y009737D01*
X007083Y010643D01*
X006965Y010760D01*
X006060Y010760D01*
X005943Y010643D01*
X005943Y009737D01*
X005943Y009867D02*
X005508Y009867D01*
X005508Y010026D02*
X005943Y010026D01*
X005943Y010184D02*
X005508Y010184D01*
X005508Y010343D02*
X005943Y010343D01*
X005943Y010501D02*
X005508Y010501D01*
X005491Y010660D02*
X005960Y010660D01*
X004994Y011136D02*
X001659Y011136D01*
X001659Y011294D02*
X005184Y011294D01*
X004836Y010977D02*
X001659Y010977D01*
X001659Y010819D02*
X004706Y010819D01*
X003050Y009392D02*
X009467Y009392D01*
X009467Y009402D02*
X009467Y009191D01*
X009548Y008996D01*
X009697Y008847D01*
X009891Y008766D01*
X010102Y008766D01*
X010297Y008847D01*
X010446Y008996D01*
X010527Y009191D01*
X010527Y009402D01*
X010465Y009550D01*
X011754Y009550D01*
X011754Y009572D02*
X011754Y009268D01*
X012047Y008974D01*
X012008Y008958D01*
X011879Y008829D01*
X011809Y008660D01*
X011809Y007957D01*
X011879Y007788D01*
X012008Y007658D01*
X012177Y007588D01*
X012360Y007588D01*
X012529Y007658D01*
X012658Y007788D01*
X012728Y007957D01*
X012728Y008660D01*
X012658Y008829D01*
X012529Y008958D01*
X012571Y008916D02*
X012966Y008916D01*
X012849Y008757D02*
X012688Y008757D01*
X012728Y008599D02*
X012809Y008599D01*
X012809Y008440D02*
X012728Y008440D01*
X012728Y008282D02*
X012809Y008282D01*
X012809Y008123D02*
X012728Y008123D01*
X012728Y007965D02*
X012809Y007965D01*
X012871Y007806D02*
X012666Y007806D01*
X012766Y007648D02*
X012504Y007648D01*
X012033Y007648D02*
X011991Y007648D01*
X011871Y007806D02*
X011833Y007806D01*
X011809Y007965D02*
X011674Y007965D01*
X011809Y008123D02*
X011516Y008123D01*
X011469Y008282D02*
X011809Y008282D01*
X011809Y008440D02*
X011469Y008440D01*
X011317Y008599D02*
X011809Y008599D01*
X011849Y008757D02*
X003268Y008757D01*
X003268Y008599D02*
X007700Y008599D01*
X007549Y008440D02*
X003240Y008440D01*
X003198Y008282D02*
X004055Y008282D01*
X003896Y008123D02*
X003119Y008123D01*
X003025Y007965D02*
X003738Y007965D01*
X003579Y007806D02*
X002866Y007806D01*
X002841Y007648D02*
X002633Y007648D01*
X002828Y007489D02*
X001493Y007489D01*
X001493Y007648D02*
X001534Y007648D01*
X001626Y007331D02*
X002828Y007331D01*
X002828Y007172D02*
X001692Y007172D01*
X001699Y007014D02*
X002828Y007014D01*
X002828Y006855D02*
X001699Y006855D01*
X001699Y006696D02*
X002861Y006696D01*
X003935Y006696D02*
X004436Y006696D01*
X004403Y006729D02*
X004520Y006612D01*
X005426Y006612D01*
X005543Y006729D01*
X005543Y006929D01*
X005978Y006929D01*
X005978Y006729D01*
X006095Y006612D01*
X007001Y006612D01*
X007118Y006729D01*
X007118Y006929D01*
X007607Y006929D01*
X007794Y006742D01*
X008176Y006742D01*
X008445Y007011D01*
X008445Y007392D01*
X008176Y007662D01*
X007794Y007662D01*
X007562Y007429D01*
X007118Y007429D01*
X007118Y007635D01*
X007001Y007752D01*
X006095Y007752D01*
X005978Y007635D01*
X005978Y007429D01*
X005543Y007429D01*
X005543Y007635D01*
X005426Y007752D01*
X004520Y007752D01*
X004403Y007635D01*
X004403Y006729D01*
X004403Y006855D02*
X003968Y006855D01*
X003968Y007014D02*
X004403Y007014D01*
X004403Y007172D02*
X003968Y007172D01*
X003968Y007331D02*
X004403Y007331D01*
X004403Y007489D02*
X003969Y007489D01*
X004128Y007648D02*
X004416Y007648D01*
X004286Y007806D02*
X007809Y007806D01*
X007780Y007648D02*
X007105Y007648D01*
X007118Y007489D02*
X007622Y007489D01*
X008190Y007648D02*
X008684Y007648D01*
X008684Y007489D02*
X008348Y007489D01*
X008445Y007331D02*
X008684Y007331D01*
X008684Y007172D02*
X008445Y007172D01*
X008445Y007014D02*
X008684Y007014D01*
X008709Y006855D02*
X008289Y006855D01*
X008850Y006696D02*
X007085Y006696D01*
X007118Y006855D02*
X007681Y006855D01*
X007826Y006575D02*
X007557Y006306D01*
X007557Y005925D01*
X007826Y005655D01*
X008207Y005655D01*
X008476Y005925D01*
X008476Y006306D01*
X008207Y006575D01*
X007826Y006575D01*
X007789Y006538D02*
X001699Y006538D01*
X001699Y006379D02*
X007630Y006379D01*
X007557Y006221D02*
X001699Y006221D01*
X001699Y006062D02*
X007557Y006062D01*
X007578Y005904D02*
X001699Y005904D01*
X001699Y005745D02*
X007736Y005745D01*
X008297Y005745D02*
X009801Y005745D01*
X009959Y005587D02*
X001699Y005587D01*
X001699Y005428D02*
X010118Y005428D01*
X010276Y005270D02*
X001699Y005270D01*
X001699Y005111D02*
X010435Y005111D01*
X010329Y004957D02*
X010142Y005034D01*
X009939Y005034D01*
X009751Y004957D01*
X009608Y004813D01*
X009549Y004671D01*
X009549Y004732D01*
X009248Y005029D01*
X008825Y005026D01*
X008529Y004725D01*
X008532Y004302D01*
X008832Y004006D01*
X009255Y004009D01*
X009552Y004310D01*
X009551Y004372D01*
X009608Y004235D01*
X009751Y004092D01*
X009939Y004014D01*
X010142Y004014D01*
X010329Y004092D01*
X010472Y004235D01*
X010550Y004423D01*
X010550Y004626D01*
X010472Y004813D01*
X010329Y004957D01*
X010333Y004952D02*
X010594Y004952D01*
X010480Y004794D02*
X010752Y004794D01*
X010911Y004635D02*
X010546Y004635D01*
X010550Y004477D02*
X011069Y004477D01*
X011228Y004318D02*
X010507Y004318D01*
X010397Y004160D02*
X011386Y004160D01*
X011608Y004001D02*
X008002Y004001D01*
X008160Y003843D02*
X011436Y003843D01*
X011301Y003684D02*
X008319Y003684D01*
X008364Y003639D02*
X007808Y004195D01*
X007021Y004195D01*
X006464Y003639D01*
X006464Y002852D01*
X007021Y002295D01*
X007808Y002295D01*
X008364Y002852D01*
X008364Y003639D01*
X008364Y003526D02*
X011235Y003526D01*
X011173Y003367D02*
X008364Y003367D01*
X008364Y003208D02*
X011173Y003208D01*
X011173Y003050D02*
X008364Y003050D01*
X008364Y002891D02*
X011217Y002891D01*
X011282Y002733D02*
X008245Y002733D01*
X008087Y002574D02*
X011391Y002574D01*
X011550Y002416D02*
X007928Y002416D01*
X006900Y002416D02*
X003046Y002416D01*
X003205Y002574D02*
X006742Y002574D01*
X006583Y002733D02*
X003363Y002733D01*
X003482Y002891D02*
X006464Y002891D01*
X006464Y003050D02*
X003482Y003050D01*
X003482Y003208D02*
X006464Y003208D01*
X006464Y003367D02*
X003482Y003367D01*
X003482Y003526D02*
X006464Y003526D01*
X006510Y003684D02*
X003437Y003684D01*
X003278Y003843D02*
X006668Y003843D01*
X006827Y004001D02*
X003120Y004001D01*
X002961Y004160D02*
X006985Y004160D01*
X007843Y004160D02*
X008676Y004160D01*
X008532Y004318D02*
X001699Y004318D01*
X001699Y004160D02*
X002103Y004160D01*
X001945Y004001D02*
X001699Y004001D01*
X001699Y003843D02*
X001786Y003843D01*
X001699Y004477D02*
X008530Y004477D01*
X008529Y004635D02*
X001699Y004635D01*
X001699Y004794D02*
X008597Y004794D01*
X008753Y004952D02*
X001699Y004952D01*
X001139Y006966D02*
X001139Y002202D01*
X001704Y002257D02*
X011883Y002257D01*
X014646Y003050D02*
X014743Y003050D01*
X014805Y003208D02*
X015638Y003208D01*
X015724Y003050D02*
X015796Y003050D01*
X015982Y002891D02*
X017342Y002891D01*
X017315Y003050D02*
X016646Y003050D01*
X016805Y003208D02*
X017315Y003208D01*
X017328Y003367D02*
X016963Y003367D01*
X017041Y003526D02*
X017393Y003526D01*
X017459Y003684D02*
X017069Y003684D01*
X017227Y003843D02*
X017617Y003843D01*
X017029Y004351D02*
X016922Y004244D01*
X016561Y004605D01*
X016399Y004605D01*
X016529Y004658D01*
X016658Y004788D01*
X016728Y004957D01*
X016728Y005058D01*
X016809Y005058D01*
X016809Y004957D01*
X016879Y004788D01*
X017008Y004658D01*
X017177Y004588D01*
X017360Y004588D01*
X017529Y004658D01*
X017658Y004788D01*
X017728Y004957D01*
X017728Y005660D01*
X017710Y005704D01*
X019078Y007071D01*
X019078Y005219D01*
X018319Y004460D01*
X017191Y004460D01*
X017099Y004422D01*
X017029Y004351D01*
X016996Y004318D02*
X016847Y004318D01*
X016689Y004477D02*
X018336Y004477D01*
X018303Y004608D02*
X018372Y004619D01*
X018437Y004640D01*
X018499Y004672D01*
X018555Y004713D01*
X018604Y004762D01*
X018645Y004818D01*
X018676Y004879D01*
X018698Y004945D01*
X018708Y005014D01*
X018708Y005308D01*
X018269Y005308D01*
X018269Y005308D01*
X018708Y005308D01*
X018708Y005603D01*
X018698Y005671D01*
X018676Y005737D01*
X018645Y005799D01*
X018604Y005855D01*
X018555Y005904D01*
X018499Y005944D01*
X018437Y005976D01*
X018372Y005997D01*
X018303Y006008D01*
X018269Y006008D01*
X018269Y005309D01*
X018268Y005309D01*
X018268Y006008D01*
X018234Y006008D01*
X018165Y005997D01*
X018100Y005976D01*
X018038Y005944D01*
X017982Y005904D01*
X017933Y005855D01*
X017892Y005799D01*
X017861Y005737D01*
X017839Y005671D01*
X017829Y005603D01*
X017829Y005308D01*
X017829Y005014D01*
X017839Y004945D01*
X017861Y004879D01*
X017892Y004818D01*
X017933Y004762D01*
X017982Y004713D01*
X018038Y004672D01*
X018100Y004640D01*
X018165Y004619D01*
X018234Y004608D01*
X018268Y004608D01*
X018268Y005308D01*
X017829Y005308D01*
X018268Y005308D01*
X018268Y005308D01*
X018269Y005308D01*
X018269Y004608D01*
X018303Y004608D01*
X018269Y004635D02*
X018268Y004635D01*
X018115Y004635D02*
X017474Y004635D01*
X017661Y004794D02*
X017909Y004794D01*
X017838Y004952D02*
X017727Y004952D01*
X017728Y005111D02*
X017829Y005111D01*
X017829Y005270D02*
X017728Y005270D01*
X017728Y005428D02*
X017829Y005428D01*
X017829Y005587D02*
X017728Y005587D01*
X017752Y005745D02*
X017865Y005745D01*
X017910Y005904D02*
X017982Y005904D01*
X018069Y006062D02*
X019078Y006062D01*
X019078Y005904D02*
X018555Y005904D01*
X018672Y005745D02*
X019078Y005745D01*
X019078Y005587D02*
X018708Y005587D01*
X018708Y005428D02*
X019078Y005428D01*
X019078Y005270D02*
X018708Y005270D01*
X018708Y005111D02*
X018970Y005111D01*
X018811Y004952D02*
X018699Y004952D01*
X018653Y004794D02*
X018628Y004794D01*
X018494Y004635D02*
X018422Y004635D01*
X018269Y004794D02*
X018268Y004794D01*
X018268Y004952D02*
X018269Y004952D01*
X018268Y005111D02*
X018269Y005111D01*
X018268Y005270D02*
X018269Y005270D01*
X018268Y005428D02*
X018269Y005428D01*
X018268Y005587D02*
X018269Y005587D01*
X018268Y005745D02*
X018269Y005745D01*
X018268Y005904D02*
X018269Y005904D01*
X018227Y006221D02*
X019078Y006221D01*
X019078Y006379D02*
X018386Y006379D01*
X018545Y006538D02*
X019078Y006538D01*
X019078Y006696D02*
X018703Y006696D01*
X018862Y006855D02*
X019078Y006855D01*
X019078Y007014D02*
X019020Y007014D01*
X019578Y007014D02*
X023537Y007014D01*
X023537Y007172D02*
X019651Y007172D01*
X019810Y007331D02*
X023537Y007331D01*
X023537Y007489D02*
X019968Y007489D01*
X020127Y007648D02*
X023537Y007648D01*
X023537Y007690D02*
X023537Y006784D01*
X023654Y006667D01*
X024560Y006667D01*
X024677Y006784D01*
X024677Y007690D01*
X024560Y007807D01*
X023654Y007807D01*
X023537Y007690D01*
X023653Y007806D02*
X022634Y007806D01*
X022632Y007805D02*
X022902Y008074D01*
X022902Y008455D01*
X022632Y008725D01*
X022251Y008725D01*
X021982Y008455D01*
X021982Y008074D01*
X022251Y007805D01*
X022632Y007805D01*
X022792Y007965D02*
X027590Y007965D01*
X027498Y008123D02*
X022902Y008123D01*
X022902Y008282D02*
X027444Y008282D01*
X027401Y008440D02*
X022902Y008440D01*
X022758Y008599D02*
X027395Y008599D01*
X027395Y008757D02*
X020330Y008757D01*
X020463Y008599D02*
X022125Y008599D01*
X021982Y008440D02*
X020483Y008440D01*
X020483Y008282D02*
X021982Y008282D01*
X021982Y008123D02*
X020483Y008123D01*
X020444Y007965D02*
X022091Y007965D01*
X022250Y007806D02*
X020285Y007806D01*
X019983Y008282D02*
X019902Y008282D01*
X019902Y008440D02*
X019940Y008440D01*
X019782Y008599D02*
X019758Y008599D01*
X019623Y008757D02*
X019144Y008757D01*
X019069Y008916D02*
X019465Y008916D01*
X019306Y009075D02*
X018911Y009075D01*
X018752Y009233D02*
X019198Y009233D01*
X019196Y009392D02*
X018705Y009392D01*
X018705Y009550D02*
X019196Y009550D01*
X019196Y009709D02*
X018691Y009709D01*
X018532Y009867D02*
X019196Y009867D01*
X019196Y010026D02*
X012229Y010026D01*
X012388Y010184D02*
X019196Y010184D01*
X019196Y010343D02*
X018942Y010343D01*
X018876Y010277D02*
X019146Y010547D01*
X019146Y010928D01*
X018955Y011118D01*
X018955Y012776D01*
X020709Y014529D01*
X021089Y014529D01*
X021358Y014799D01*
X021358Y015180D01*
X021089Y015449D01*
X020708Y015449D01*
X020438Y015180D01*
X020438Y014965D01*
X020358Y014885D01*
X020358Y015180D01*
X020089Y015449D01*
X019708Y015449D01*
X019438Y015180D01*
X019438Y014799D01*
X019708Y014529D01*
X020002Y014529D01*
X018494Y013021D01*
X018456Y012929D01*
X018456Y012829D01*
X018456Y011158D01*
X018226Y010928D01*
X018226Y010547D01*
X018495Y010277D01*
X018876Y010277D01*
X019100Y010501D02*
X019196Y010501D01*
X019196Y010660D02*
X019146Y010660D01*
X019146Y010819D02*
X019196Y010819D01*
X019196Y010977D02*
X019097Y010977D01*
X019196Y011136D02*
X018955Y011136D01*
X018955Y011294D02*
X019247Y011294D01*
X019406Y011453D02*
X018955Y011453D01*
X018955Y011611D02*
X019678Y011611D01*
X019877Y011770D02*
X018955Y011770D01*
X018955Y011928D02*
X019731Y011928D01*
X019624Y012087D02*
X018955Y012087D01*
X018955Y012245D02*
X019580Y012245D01*
X019582Y012404D02*
X018955Y012404D01*
X018955Y012563D02*
X019647Y012563D01*
X019788Y012721D02*
X018955Y012721D01*
X019060Y012880D02*
X020097Y012880D01*
X019963Y013038D02*
X019218Y013038D01*
X019377Y013197D02*
X019900Y013197D01*
X019900Y013355D02*
X019535Y013355D01*
X019694Y013514D02*
X019946Y013514D01*
X019852Y013672D02*
X020056Y013672D01*
X020011Y013831D02*
X024471Y013831D01*
X024471Y013989D02*
X020169Y013989D01*
X020328Y014148D02*
X024471Y014148D01*
X024471Y014306D02*
X020486Y014306D01*
X020645Y014465D02*
X024235Y014465D01*
X024104Y014624D02*
X021183Y014624D01*
X021342Y014782D02*
X024038Y014782D01*
X024017Y014941D02*
X021358Y014941D01*
X021358Y015099D02*
X024017Y015099D01*
X024079Y015258D02*
X021280Y015258D01*
X021122Y015416D02*
X024177Y015416D01*
X025242Y015416D02*
X025985Y015416D01*
X025881Y015258D02*
X025339Y015258D01*
X025401Y015099D02*
X025828Y015099D01*
X025844Y014782D02*
X025380Y014782D01*
X025401Y014941D02*
X026421Y014941D01*
X026557Y014941D02*
X029043Y014941D01*
X029031Y015099D02*
X027150Y015099D01*
X027098Y015258D02*
X028955Y015258D01*
X028762Y015416D02*
X026993Y015416D01*
X027135Y014782D02*
X029038Y014782D01*
X029043Y014624D02*
X027065Y014624D01*
X026935Y014465D02*
X029043Y014465D01*
X029043Y014306D02*
X026598Y014306D01*
X026557Y014306D02*
X026421Y014306D01*
X026380Y014306D02*
X024971Y014306D01*
X024971Y014148D02*
X029043Y014148D01*
X029043Y013989D02*
X024971Y013989D01*
X024971Y013831D02*
X029043Y013831D01*
X029043Y013672D02*
X024971Y013672D01*
X024971Y013514D02*
X029043Y013514D01*
X029043Y013355D02*
X024971Y013355D01*
X024971Y013197D02*
X029043Y013197D01*
X029043Y013038D02*
X024971Y013038D01*
X024971Y012880D02*
X029043Y012880D01*
X029043Y012721D02*
X024971Y012721D01*
X024971Y012563D02*
X029043Y012563D01*
X029043Y012404D02*
X024961Y012404D01*
X024931Y012245D02*
X029043Y012245D01*
X029043Y012087D02*
X024959Y012087D01*
X024959Y011928D02*
X029043Y011928D01*
X029043Y011770D02*
X024959Y011770D01*
X024959Y011611D02*
X029043Y011611D01*
X029043Y011453D02*
X024959Y011453D01*
X024959Y011294D02*
X029043Y011294D01*
X029043Y011136D02*
X024959Y011136D01*
X024959Y010977D02*
X029043Y010977D01*
X029043Y010819D02*
X024959Y010819D01*
X025040Y010660D02*
X026211Y010660D01*
X026191Y010652D02*
X026115Y010608D01*
X026045Y010554D01*
X025983Y010492D01*
X025929Y010422D01*
X025885Y010346D01*
X025851Y010264D01*
X025829Y010179D01*
X025820Y010116D01*
X026421Y010116D01*
X026421Y009980D01*
X025820Y009980D01*
X025829Y009916D01*
X025851Y009831D01*
X025885Y009750D01*
X025929Y009674D01*
X025983Y009604D01*
X026045Y009541D01*
X026115Y009488D01*
X026191Y009444D01*
X026273Y009410D01*
X026358Y009387D01*
X026421Y009379D01*
X026421Y009980D01*
X026557Y009980D01*
X026557Y010116D01*
X026421Y010116D01*
X026421Y010717D01*
X026358Y010708D01*
X026273Y010686D01*
X026191Y010652D01*
X026421Y010660D02*
X026557Y010660D01*
X026557Y010717D02*
X026557Y010116D01*
X027158Y010116D01*
X027150Y010179D01*
X027127Y010264D01*
X027093Y010346D01*
X027049Y010422D01*
X026996Y010492D01*
X026933Y010554D01*
X026863Y010608D01*
X026787Y010652D01*
X026706Y010686D01*
X026621Y010708D01*
X026557Y010717D01*
X026557Y010501D02*
X026421Y010501D01*
X026421Y010343D02*
X026557Y010343D01*
X026557Y010184D02*
X026421Y010184D01*
X026421Y010026D02*
X025401Y010026D01*
X025401Y010184D02*
X025830Y010184D01*
X025884Y010343D02*
X025336Y010343D01*
X025234Y010501D02*
X025992Y010501D01*
X026557Y010026D02*
X029050Y010026D01*
X029034Y010184D02*
X027148Y010184D01*
X027094Y010343D02*
X029043Y010343D01*
X029043Y010501D02*
X026986Y010501D01*
X026768Y010660D02*
X029043Y010660D01*
X029603Y010155D02*
X029603Y014840D01*
X029609Y014904D01*
X029611Y014968D01*
X029609Y015033D01*
X029603Y015097D01*
X029594Y015160D01*
X029580Y015223D01*
X029563Y015285D01*
X029542Y015346D01*
X029517Y015405D01*
X029488Y015463D01*
X029456Y015519D01*
X029421Y015572D01*
X029383Y015624D01*
X029341Y015673D01*
X029297Y015720D01*
X029250Y015763D01*
X029200Y015804D01*
X029148Y015841D01*
X029093Y015876D01*
X029037Y015907D01*
X028979Y015934D01*
X028919Y015958D01*
X028858Y015978D01*
X028796Y015994D01*
X028732Y016007D01*
X028669Y016015D01*
X028605Y016020D01*
X028540Y016021D01*
X002280Y016021D01*
X001941Y015416D02*
X010334Y015416D01*
X010178Y015258D02*
X009860Y015258D01*
X009850Y015267D02*
X009980Y015140D01*
X009982Y014775D01*
X009855Y014646D01*
X009542Y014954D01*
X009541Y014954D01*
X009232Y014641D01*
X009103Y014769D01*
X009100Y015134D01*
X009228Y015263D01*
X009541Y014954D01*
X009541Y014954D01*
X009232Y014641D01*
X009362Y014513D01*
X009727Y014516D01*
X009854Y014645D01*
X009541Y014954D01*
X009541Y014955D01*
X009228Y015263D01*
X009356Y015393D01*
X009720Y015396D01*
X009850Y015268D01*
X009541Y014955D01*
X009542Y014954D01*
X009850Y015267D01*
X009841Y015258D02*
X009840Y015258D01*
X009980Y015099D02*
X010070Y015099D01*
X010071Y014941D02*
X009981Y014941D01*
X009982Y014782D02*
X010072Y014782D01*
X010218Y014624D02*
X009833Y014624D01*
X009716Y014782D02*
X009716Y014782D01*
X009555Y014941D02*
X009555Y014941D01*
X009528Y014941D02*
X009527Y014941D01*
X009394Y015099D02*
X009394Y015099D01*
X009234Y015258D02*
X009233Y015258D01*
X009223Y015258D02*
X001752Y015258D01*
X001679Y015099D02*
X009100Y015099D01*
X009101Y014941D02*
X007909Y014941D01*
X007772Y015077D02*
X006985Y015077D01*
X006429Y014521D01*
X006429Y013734D01*
X006985Y013177D01*
X007772Y013177D01*
X008329Y013734D01*
X008329Y014521D01*
X007772Y015077D01*
X008067Y014782D02*
X009102Y014782D01*
X009250Y014624D02*
X008226Y014624D01*
X008329Y014465D02*
X010674Y014465D01*
X010832Y014306D02*
X008329Y014306D01*
X008329Y014148D02*
X010849Y014148D01*
X010849Y013989D02*
X008329Y013989D01*
X008329Y013831D02*
X010849Y013831D01*
X010849Y013672D02*
X010370Y013672D01*
X010480Y013514D02*
X010849Y013514D01*
X010849Y013355D02*
X010527Y013355D01*
X010527Y013197D02*
X010849Y013197D01*
X010849Y013038D02*
X010464Y013038D01*
X010330Y012880D02*
X010849Y012880D01*
X010849Y012721D02*
X010596Y012721D01*
X010752Y012563D02*
X010849Y012563D01*
X010849Y012404D02*
X010816Y012404D01*
X010825Y012245D02*
X010849Y012245D01*
X010849Y012087D02*
X010781Y012087D01*
X010849Y011928D02*
X010667Y011928D01*
X010550Y011770D02*
X010849Y011770D01*
X010849Y011611D02*
X010749Y011611D01*
X010825Y011453D02*
X010849Y011453D01*
X010846Y011294D02*
X010849Y011294D01*
X010849Y011136D02*
X010823Y011136D01*
X010820Y010977D02*
X010745Y010977D01*
X010662Y010819D02*
X010539Y010819D01*
X011349Y010977D02*
X011397Y010977D01*
X011349Y011136D02*
X011556Y011136D01*
X011349Y011294D02*
X012975Y011294D01*
X012975Y011136D02*
X011989Y011136D01*
X012148Y010977D02*
X012907Y010977D01*
X013445Y010819D02*
X014312Y010819D01*
X014312Y010892D02*
X014312Y010511D01*
X014582Y010242D01*
X014963Y010242D01*
X015232Y010511D01*
X015232Y010892D01*
X014963Y011162D01*
X014582Y011162D01*
X014312Y010892D01*
X014397Y010977D02*
X013475Y010977D01*
X013475Y011136D02*
X014556Y011136D01*
X014989Y011136D02*
X015462Y011136D01*
X015504Y011177D02*
X015246Y010920D01*
X015246Y010737D01*
X015246Y010555D01*
X015504Y010297D01*
X015686Y010297D01*
X015868Y010297D01*
X016126Y010555D01*
X016126Y010737D01*
X015686Y010737D01*
X015686Y010297D01*
X015686Y010737D01*
X015686Y010737D01*
X015686Y010737D01*
X016126Y010737D01*
X016126Y010920D01*
X015868Y011177D01*
X015686Y011177D01*
X015686Y010738D01*
X015686Y010738D01*
X015686Y011177D01*
X015504Y011177D01*
X015686Y011136D02*
X015686Y011136D01*
X015686Y010977D02*
X015686Y010977D01*
X015686Y010819D02*
X015686Y010819D01*
X015685Y010737D02*
X015685Y010737D01*
X015246Y010737D01*
X015685Y010737D01*
X015686Y010660D02*
X015686Y010660D01*
X015686Y010501D02*
X015686Y010501D01*
X015686Y010343D02*
X015686Y010343D01*
X015914Y010343D02*
X018430Y010343D01*
X018271Y010501D02*
X016072Y010501D01*
X016126Y010660D02*
X018226Y010660D01*
X018226Y010819D02*
X016126Y010819D01*
X016068Y010977D02*
X018275Y010977D01*
X018434Y011136D02*
X015910Y011136D01*
X015303Y010977D02*
X015148Y010977D01*
X015232Y010819D02*
X015246Y010819D01*
X015232Y010660D02*
X015246Y010660D01*
X015223Y010501D02*
X015299Y010501D01*
X015458Y010343D02*
X015064Y010343D01*
X014481Y010343D02*
X012933Y010343D01*
X013138Y010501D02*
X014322Y010501D01*
X014312Y010660D02*
X013297Y010660D01*
X012342Y010819D02*
X012232Y010819D01*
X012975Y011453D02*
X011349Y011453D01*
X011349Y011611D02*
X012975Y011611D01*
X012975Y011770D02*
X011349Y011770D01*
X011349Y011928D02*
X012975Y011928D01*
X012975Y012087D02*
X011349Y012087D01*
X011349Y012245D02*
X012763Y012245D01*
X012655Y012404D02*
X011349Y012404D01*
X011349Y012563D02*
X012595Y012563D01*
X012595Y012721D02*
X011349Y012721D01*
X011349Y012880D02*
X012628Y012880D01*
X012698Y013038D02*
X011349Y013038D01*
X011349Y013197D02*
X012857Y013197D01*
X013041Y013355D02*
X011349Y013355D01*
X011349Y013514D02*
X013199Y013514D01*
X013358Y013672D02*
X011349Y013672D01*
X011349Y013831D02*
X019304Y013831D01*
X019462Y013989D02*
X011349Y013989D01*
X011349Y014148D02*
X014798Y014148D01*
X014837Y014109D02*
X015068Y014013D01*
X015319Y014013D01*
X015551Y014109D01*
X015728Y014286D01*
X015824Y014517D01*
X015824Y014768D01*
X015728Y015000D01*
X015551Y015177D01*
X015319Y015273D01*
X015068Y015273D01*
X014837Y015177D01*
X014660Y015000D01*
X014564Y014768D01*
X014564Y014517D01*
X014660Y014286D01*
X014837Y014109D01*
X014651Y014306D02*
X011349Y014306D01*
X011340Y014465D02*
X014585Y014465D01*
X014564Y014624D02*
X011222Y014624D01*
X011064Y014782D02*
X014570Y014782D01*
X014635Y014941D02*
X010991Y014941D01*
X010990Y015099D02*
X014759Y015099D01*
X015032Y015258D02*
X010886Y015258D01*
X010725Y015416D02*
X019675Y015416D01*
X019516Y015258D02*
X015355Y015258D01*
X015628Y015099D02*
X019438Y015099D01*
X019438Y014941D02*
X015752Y014941D01*
X015818Y014782D02*
X019455Y014782D01*
X019614Y014624D02*
X015824Y014624D01*
X015802Y014465D02*
X019938Y014465D01*
X019779Y014306D02*
X015736Y014306D01*
X015590Y014148D02*
X019621Y014148D01*
X019145Y013672D02*
X016990Y013672D01*
X017149Y013514D02*
X018987Y013514D01*
X018828Y013355D02*
X017307Y013355D01*
X017531Y013197D02*
X018670Y013197D01*
X018511Y013038D02*
X017689Y013038D01*
X017759Y012880D02*
X018456Y012880D01*
X018456Y012721D02*
X017792Y012721D01*
X017792Y012563D02*
X018456Y012563D01*
X018456Y012404D02*
X017732Y012404D01*
X017624Y012245D02*
X018456Y012245D01*
X018456Y012087D02*
X017390Y012087D01*
X016934Y012087D02*
X016406Y012087D01*
X016640Y012245D02*
X016700Y012245D01*
X015950Y012087D02*
X014437Y012087D01*
X014671Y012245D02*
X015716Y012245D01*
X015608Y012404D02*
X014779Y012404D01*
X014839Y012563D02*
X015548Y012563D01*
X015548Y012721D02*
X014839Y012721D01*
X014806Y012880D02*
X015581Y012880D01*
X015651Y013038D02*
X014737Y013038D01*
X014578Y013197D02*
X015809Y013197D01*
X013981Y012087D02*
X013475Y012087D01*
X013475Y011928D02*
X018456Y011928D01*
X018456Y011770D02*
X013475Y011770D01*
X013475Y011611D02*
X018456Y011611D01*
X018456Y011453D02*
X013475Y011453D01*
X013475Y011294D02*
X018456Y011294D01*
X016705Y009695D02*
X016403Y009996D01*
X015976Y009996D01*
X015675Y009695D01*
X015675Y009268D01*
X015976Y008966D01*
X016028Y008966D01*
X016008Y008958D01*
X015879Y008829D01*
X015809Y008660D01*
X015809Y007957D01*
X015879Y007788D01*
X016008Y007658D01*
X016177Y007588D01*
X016360Y007588D01*
X016529Y007658D01*
X016658Y007788D01*
X016728Y007957D01*
X016728Y008660D01*
X016658Y008829D01*
X016529Y008958D01*
X016434Y008997D01*
X016705Y009268D01*
X016705Y009695D01*
X016691Y009709D02*
X017689Y009709D01*
X017675Y009550D02*
X016705Y009550D01*
X016705Y009392D02*
X017675Y009392D01*
X017710Y009233D02*
X016670Y009233D01*
X016511Y009075D02*
X017868Y009075D01*
X017966Y008916D02*
X017571Y008916D01*
X017529Y008958D02*
X017360Y009028D01*
X017177Y009028D01*
X017008Y008958D01*
X016879Y008829D01*
X016809Y008660D01*
X016809Y007957D01*
X016879Y007788D01*
X017008Y007658D01*
X017177Y007588D01*
X017360Y007588D01*
X017529Y007658D01*
X017658Y007788D01*
X017728Y007957D01*
X017728Y008660D01*
X017658Y008829D01*
X017529Y008958D01*
X017688Y008757D02*
X017849Y008757D01*
X017809Y008599D02*
X017728Y008599D01*
X017728Y008440D02*
X017809Y008440D01*
X017809Y008282D02*
X017728Y008282D01*
X017728Y008123D02*
X017809Y008123D01*
X017809Y007965D02*
X017728Y007965D01*
X017666Y007806D02*
X017807Y007806D01*
X017648Y007648D02*
X017504Y007648D01*
X017490Y007489D02*
X014538Y007489D01*
X014538Y007331D02*
X017331Y007331D01*
X017173Y007172D02*
X014494Y007172D01*
X014416Y007014D02*
X014335Y007014D01*
X014257Y006855D02*
X014177Y006855D01*
X014099Y006696D02*
X014018Y006696D01*
X014488Y006379D02*
X017679Y006379D01*
X017521Y006221D02*
X014330Y006221D01*
X014171Y006062D02*
X017362Y006062D01*
X016954Y005904D02*
X016583Y005904D01*
X016693Y005745D02*
X016844Y005745D01*
X016809Y005587D02*
X016728Y005587D01*
X015954Y005904D02*
X015583Y005904D01*
X015529Y005958D02*
X015360Y006028D01*
X015177Y006028D01*
X015008Y005958D01*
X014879Y005829D01*
X014809Y005660D01*
X014809Y004957D01*
X014879Y004788D01*
X015008Y004658D01*
X015177Y004588D01*
X015360Y004588D01*
X015529Y004658D01*
X015658Y004788D01*
X015728Y004957D01*
X015728Y005660D01*
X015658Y005829D01*
X015529Y005958D01*
X015693Y005745D02*
X015844Y005745D01*
X015809Y005587D02*
X015728Y005587D01*
X015728Y005428D02*
X015809Y005428D01*
X015809Y005270D02*
X015728Y005270D01*
X015728Y005111D02*
X015809Y005111D01*
X015810Y004952D02*
X015727Y004952D01*
X015661Y004794D02*
X015876Y004794D01*
X016063Y004635D02*
X015474Y004635D01*
X015754Y004477D02*
X014689Y004477D01*
X014847Y004318D02*
X015595Y004318D01*
X015437Y004160D02*
X015006Y004160D01*
X015041Y004001D02*
X015401Y004001D01*
X015401Y003843D02*
X015041Y003843D01*
X015041Y003684D02*
X015401Y003684D01*
X015401Y003526D02*
X015041Y003526D01*
X014963Y003367D02*
X015479Y003367D01*
X016141Y002733D02*
X017408Y002733D01*
X017494Y002574D02*
X016249Y002574D01*
X016338Y002416D02*
X017652Y002416D01*
X017930Y002257D02*
X016381Y002257D01*
X016417Y002099D02*
X018694Y002099D01*
X018694Y001940D02*
X016417Y001940D01*
X016410Y001782D02*
X018694Y001782D01*
X018694Y001623D02*
X016837Y001623D01*
X016757Y001623D02*
X016367Y001623D01*
X016410Y001464D02*
X016311Y001464D01*
X016297Y001306D02*
X016220Y001306D01*
X016159Y001147D02*
X016090Y001147D01*
X016808Y001021D02*
X028422Y001021D01*
X028757Y001623D02*
X023052Y001623D01*
X023054Y001782D02*
X028949Y001782D01*
X029022Y001940D02*
X023054Y001940D01*
X023054Y002099D02*
X029043Y002099D01*
X029043Y002257D02*
X021838Y002257D01*
X021520Y002416D02*
X022782Y002416D01*
X022847Y002350D02*
X023634Y002350D01*
X024191Y002907D01*
X024191Y003694D01*
X023634Y004250D01*
X022847Y004250D01*
X022291Y003694D01*
X022291Y002907D01*
X022847Y002350D01*
X022623Y002574D02*
X019036Y002574D01*
X019121Y002733D02*
X022465Y002733D01*
X022306Y002891D02*
X019187Y002891D01*
X019215Y003050D02*
X022291Y003050D01*
X022291Y003208D02*
X019215Y003208D01*
X019202Y003367D02*
X022291Y003367D01*
X022291Y003526D02*
X019136Y003526D01*
X019070Y003684D02*
X022291Y003684D01*
X022440Y003843D02*
X018912Y003843D01*
X018684Y004001D02*
X022598Y004001D01*
X022757Y004160D02*
X018726Y004160D01*
X018884Y004318D02*
X029043Y004318D01*
X029043Y004160D02*
X028607Y004160D01*
X028765Y004001D02*
X029043Y004001D01*
X029043Y003843D02*
X028924Y003843D01*
X029043Y004477D02*
X019043Y004477D01*
X019201Y004635D02*
X029043Y004635D01*
X029043Y004794D02*
X019360Y004794D01*
X019518Y004952D02*
X020521Y004952D01*
X020506Y004968D02*
X020637Y004837D01*
X020824Y004837D01*
X020910Y004923D01*
X020939Y004894D01*
X020997Y004837D01*
X021183Y004837D01*
X021298Y004837D01*
X021346Y004885D01*
X021350Y004878D01*
X021423Y004853D01*
X021492Y004819D01*
X021510Y004824D01*
X021527Y004819D01*
X021596Y004853D01*
X021635Y004866D01*
X021664Y004837D01*
X022027Y004837D01*
X022265Y004837D01*
X022452Y004837D01*
X022566Y004837D01*
X022698Y004968D01*
X022756Y005026D01*
X022756Y005212D01*
X022756Y005255D01*
X022756Y005441D01*
X022748Y005449D01*
X022624Y005573D01*
X022566Y005630D01*
X022492Y005630D01*
X022706Y005844D01*
X022745Y005940D01*
X022745Y006043D01*
X022706Y006139D01*
X022633Y006212D01*
X022537Y006251D01*
X022434Y006251D01*
X022338Y006212D01*
X022231Y006105D01*
X022158Y006105D01*
X022158Y006465D01*
X022231Y006465D01*
X022338Y006358D01*
X022434Y006319D01*
X022537Y006319D01*
X022633Y006358D01*
X022706Y006431D01*
X022745Y006527D01*
X022745Y006630D01*
X022706Y006726D01*
X022559Y006873D01*
X022486Y006946D01*
X022390Y006985D01*
X022097Y006985D01*
X021993Y006985D01*
X021953Y006968D01*
X021898Y006946D01*
X021898Y006946D01*
X021894Y006942D01*
X021825Y006873D01*
X021825Y006873D01*
X021732Y006779D01*
X021712Y006799D01*
X021565Y006946D01*
X021470Y006985D01*
X021366Y006985D01*
X020926Y006985D01*
X020830Y006946D01*
X020757Y006873D01*
X020718Y006777D01*
X020718Y006726D01*
X020498Y006946D01*
X020402Y006985D01*
X020299Y006985D01*
X020203Y006946D01*
X020130Y006873D01*
X019836Y006579D01*
X019797Y006483D01*
X019797Y006380D01*
X019797Y006337D01*
X019797Y006233D01*
X019797Y005793D01*
X019836Y005697D01*
X019910Y005624D01*
X020005Y005585D01*
X020109Y005585D01*
X020204Y005624D01*
X020277Y005697D01*
X020317Y005793D01*
X020317Y006025D01*
X020384Y006025D01*
X020384Y005793D01*
X020424Y005697D01*
X020497Y005624D01*
X020592Y005585D01*
X020696Y005585D01*
X020791Y005624D01*
X020811Y005644D01*
X020830Y005624D01*
X020926Y005585D01*
X021029Y005585D01*
X021125Y005624D01*
X021198Y005697D01*
X021238Y005793D01*
X021238Y005878D01*
X021470Y005878D01*
X021565Y005918D01*
X021569Y005921D01*
X021638Y005991D01*
X021638Y005940D01*
X021678Y005844D01*
X021825Y005697D01*
X021892Y005630D01*
X021779Y005630D01*
X021698Y005549D01*
X021669Y005520D01*
X021642Y005534D01*
X021510Y005490D01*
X021378Y005534D01*
X021312Y005501D01*
X021298Y005516D01*
X021111Y005516D01*
X020997Y005516D01*
X020996Y005515D01*
X020996Y005516D01*
X020752Y005516D01*
X020637Y005516D01*
X020506Y005384D01*
X020506Y005269D01*
X020506Y005083D01*
X020506Y004968D01*
X020506Y005111D02*
X019578Y005111D01*
X019578Y005270D02*
X020506Y005270D01*
X020550Y005428D02*
X019578Y005428D01*
X019578Y005587D02*
X020000Y005587D01*
X020113Y005587D02*
X020587Y005587D01*
X020701Y005587D02*
X020921Y005587D01*
X021034Y005587D02*
X021735Y005587D01*
X021779Y005630D02*
X021779Y005630D01*
X021777Y005745D02*
X021218Y005745D01*
X021531Y005904D02*
X021653Y005904D01*
X022158Y006221D02*
X022360Y006221D01*
X022317Y006379D02*
X022158Y006379D01*
X022611Y006221D02*
X029043Y006221D01*
X029043Y006379D02*
X022654Y006379D01*
X022745Y006538D02*
X029043Y006538D01*
X029043Y006696D02*
X027739Y006696D01*
X027710Y006667D02*
X027827Y006784D01*
X027827Y007690D01*
X027710Y007807D01*
X026804Y007807D01*
X026687Y007690D01*
X026687Y006784D01*
X026804Y006667D01*
X027710Y006667D01*
X027827Y006855D02*
X029043Y006855D01*
X029041Y007014D02*
X027827Y007014D01*
X027827Y007172D02*
X029050Y007172D01*
X029116Y007331D02*
X027827Y007331D01*
X027827Y007489D02*
X028221Y007489D01*
X027894Y007648D02*
X027827Y007648D01*
X027718Y007806D02*
X027711Y007806D01*
X026803Y007806D02*
X026136Y007806D01*
X026135Y007807D02*
X026252Y007690D01*
X026252Y006784D01*
X026135Y006667D01*
X025229Y006667D01*
X025112Y006784D01*
X025112Y007690D01*
X025229Y007807D01*
X026135Y007807D01*
X026252Y007648D02*
X026687Y007648D01*
X026687Y007489D02*
X026252Y007489D01*
X026252Y007331D02*
X026687Y007331D01*
X026687Y007172D02*
X026252Y007172D01*
X026252Y007014D02*
X026687Y007014D01*
X026687Y006855D02*
X026252Y006855D01*
X026164Y006696D02*
X026775Y006696D01*
X025200Y006696D02*
X024589Y006696D01*
X024677Y006855D02*
X025112Y006855D01*
X025112Y007014D02*
X024677Y007014D01*
X024677Y007172D02*
X025112Y007172D01*
X025112Y007331D02*
X024677Y007331D01*
X024677Y007489D02*
X025112Y007489D01*
X025112Y007648D02*
X024677Y007648D01*
X024561Y007806D02*
X025228Y007806D01*
X023537Y006855D02*
X022577Y006855D01*
X022718Y006696D02*
X023625Y006696D01*
X022738Y006062D02*
X029043Y006062D01*
X029043Y005904D02*
X022731Y005904D01*
X022607Y005745D02*
X029043Y005745D01*
X029043Y005587D02*
X022610Y005587D01*
X022756Y005428D02*
X029043Y005428D01*
X029043Y005270D02*
X022756Y005270D01*
X022756Y005111D02*
X029043Y005111D01*
X029043Y004952D02*
X022682Y004952D01*
X023725Y004160D02*
X027639Y004160D01*
X027480Y004001D02*
X023884Y004001D01*
X024042Y003843D02*
X027322Y003843D01*
X027173Y003684D02*
X024191Y003684D01*
X024191Y003526D02*
X027173Y003526D01*
X027173Y003367D02*
X024191Y003367D01*
X024191Y003208D02*
X027173Y003208D01*
X027173Y003050D02*
X024191Y003050D01*
X024175Y002891D02*
X027188Y002891D01*
X027347Y002733D02*
X024017Y002733D01*
X023858Y002574D02*
X027505Y002574D01*
X027664Y002416D02*
X023700Y002416D01*
X022198Y002244D02*
X022198Y002244D01*
X021233Y002416D02*
X019601Y002416D01*
X019688Y002257D02*
X020384Y002257D01*
X020321Y002244D02*
X020321Y002244D01*
X020130Y002244D02*
X020130Y002244D01*
X020130Y002244D01*
X019315Y002416D02*
X018877Y002416D01*
X018599Y002257D02*
X019228Y002257D01*
X017063Y004635D02*
X016474Y004635D01*
X016661Y004794D02*
X016876Y004794D01*
X016810Y004952D02*
X016727Y004952D01*
X015063Y004635D02*
X014422Y004635D01*
X014269Y004635D02*
X014268Y004635D01*
X014115Y004635D02*
X013965Y004635D01*
X014268Y004794D02*
X014269Y004794D01*
X014268Y004952D02*
X014269Y004952D01*
X014268Y005111D02*
X014269Y005111D01*
X014268Y005270D02*
X014269Y005270D01*
X014268Y005428D02*
X014269Y005428D01*
X014268Y005587D02*
X014269Y005587D01*
X014268Y005745D02*
X014269Y005745D01*
X014268Y005904D02*
X014269Y005904D01*
X014555Y005904D02*
X014954Y005904D01*
X014844Y005745D02*
X014672Y005745D01*
X014708Y005587D02*
X014809Y005587D01*
X014809Y005428D02*
X014708Y005428D01*
X014708Y005270D02*
X014809Y005270D01*
X014809Y005111D02*
X014708Y005111D01*
X014699Y004952D02*
X014810Y004952D01*
X014876Y004794D02*
X014628Y004794D01*
X012063Y004635D02*
X011618Y004635D01*
X011459Y004794D02*
X011876Y004794D01*
X011810Y004952D02*
X011301Y004952D01*
X011142Y005111D02*
X011809Y005111D01*
X011809Y005270D02*
X010983Y005270D01*
X010825Y005428D02*
X011809Y005428D01*
X011809Y005587D02*
X010666Y005587D01*
X010736Y005745D02*
X010508Y005745D01*
X010578Y005904D02*
X010349Y005904D01*
X010191Y006062D02*
X010557Y006062D01*
X010557Y006221D02*
X010032Y006221D01*
X009874Y006379D02*
X010630Y006379D01*
X010985Y006762D02*
X010985Y007201D01*
X010985Y006762D01*
X010985Y006855D02*
X010985Y006855D01*
X010985Y007014D02*
X010985Y007014D01*
X010985Y007172D02*
X010985Y007172D01*
X010985Y007201D02*
X010985Y007201D01*
X010985Y007331D02*
X010985Y007331D01*
X010985Y007489D02*
X010985Y007489D01*
X010809Y007806D02*
X009184Y007806D01*
X009166Y007965D02*
X010650Y007965D01*
X010549Y008123D02*
X009035Y008123D01*
X009075Y008083D02*
X009075Y008083D01*
X008877Y008282D02*
X010549Y008282D01*
X010549Y008440D02*
X008714Y008440D01*
X008317Y008599D02*
X010700Y008599D01*
X010366Y008916D02*
X011966Y008916D01*
X011947Y009075D02*
X010479Y009075D01*
X010527Y009233D02*
X011789Y009233D01*
X011754Y009392D02*
X010527Y009392D01*
X010465Y009550D02*
X011601Y009550D01*
X011700Y009550D01*
X011754Y009572D01*
X012611Y009867D02*
X013926Y009867D01*
X013768Y009709D02*
X012769Y009709D01*
X012783Y009550D02*
X013754Y009550D01*
X013754Y009392D02*
X012783Y009392D01*
X012748Y009233D02*
X013606Y009233D01*
X014590Y009075D02*
X015868Y009075D01*
X015966Y008916D02*
X015538Y008916D01*
X015555Y008904D02*
X015499Y008944D01*
X015437Y008976D01*
X015372Y008997D01*
X015303Y009008D01*
X015269Y009008D01*
X015269Y008309D01*
X015268Y008309D01*
X015268Y009008D01*
X015234Y009008D01*
X015165Y008997D01*
X015100Y008976D01*
X015038Y008944D01*
X014982Y008904D01*
X014933Y008855D01*
X014892Y008799D01*
X014861Y008737D01*
X014839Y008671D01*
X014829Y008603D01*
X014829Y008308D01*
X014829Y008014D01*
X014839Y007945D01*
X014861Y007879D01*
X014892Y007818D01*
X014933Y007762D01*
X014982Y007713D01*
X015038Y007672D01*
X015100Y007640D01*
X015165Y007619D01*
X015234Y007608D01*
X015268Y007608D01*
X015268Y008308D01*
X014829Y008308D01*
X015268Y008308D01*
X015268Y008308D01*
X015269Y008308D01*
X015269Y008308D01*
X015708Y008308D01*
X015708Y008014D01*
X015698Y007945D01*
X015676Y007879D01*
X015645Y007818D01*
X015604Y007762D01*
X015555Y007713D01*
X015499Y007672D01*
X015437Y007640D01*
X015372Y007619D01*
X015303Y007608D01*
X015269Y007608D01*
X015269Y008308D01*
X015708Y008308D01*
X015708Y008603D01*
X015698Y008671D01*
X015676Y008737D01*
X015645Y008799D01*
X015604Y008855D01*
X015555Y008904D01*
X015666Y008757D02*
X015849Y008757D01*
X015809Y008599D02*
X015708Y008599D01*
X015708Y008440D02*
X015809Y008440D01*
X015809Y008282D02*
X015708Y008282D01*
X015708Y008123D02*
X015809Y008123D01*
X015809Y007965D02*
X015701Y007965D01*
X015637Y007806D02*
X015871Y007806D01*
X016033Y007648D02*
X015452Y007648D01*
X015269Y007648D02*
X015268Y007648D01*
X015268Y007806D02*
X015269Y007806D01*
X015268Y007965D02*
X015269Y007965D01*
X015268Y008123D02*
X015269Y008123D01*
X015268Y008282D02*
X015269Y008282D01*
X015268Y008440D02*
X015269Y008440D01*
X015268Y008599D02*
X015269Y008599D01*
X015268Y008757D02*
X015269Y008757D01*
X015268Y008916D02*
X015269Y008916D01*
X014999Y008916D02*
X014571Y008916D01*
X014688Y008757D02*
X014871Y008757D01*
X014829Y008599D02*
X014728Y008599D01*
X014728Y008440D02*
X014829Y008440D01*
X014829Y008282D02*
X014728Y008282D01*
X014728Y008123D02*
X014829Y008123D01*
X014836Y007965D02*
X014728Y007965D01*
X014666Y007806D02*
X014900Y007806D01*
X015085Y007648D02*
X014538Y007648D01*
X012761Y006855D02*
X011260Y006855D01*
X011244Y006538D02*
X012444Y006538D01*
X012285Y006379D02*
X011403Y006379D01*
X011476Y006221D02*
X012127Y006221D01*
X012020Y006062D02*
X011476Y006062D01*
X011455Y005904D02*
X011954Y005904D01*
X011844Y005745D02*
X011297Y005745D01*
X009642Y005904D02*
X008455Y005904D01*
X008476Y006062D02*
X009484Y006062D01*
X009325Y006221D02*
X008476Y006221D01*
X008403Y006379D02*
X009167Y006379D01*
X009008Y006538D02*
X008244Y006538D01*
X006011Y006696D02*
X005510Y006696D01*
X005543Y006855D02*
X005978Y006855D01*
X005978Y007489D02*
X005543Y007489D01*
X005531Y007648D02*
X005991Y007648D01*
X008208Y007806D02*
X008645Y007806D01*
X008487Y007965D02*
X008367Y007965D01*
X009628Y008916D02*
X003251Y008916D01*
X003209Y009075D02*
X009515Y009075D01*
X009467Y009233D02*
X003142Y009233D01*
X001060Y010234D02*
X000985Y010184D01*
X000913Y010132D01*
X000843Y010075D01*
X000776Y010016D01*
X000712Y009953D01*
X000652Y009888D01*
X000594Y009819D01*
X000540Y009748D01*
X000489Y009674D01*
X000442Y009598D01*
X000399Y009520D01*
X000359Y009440D01*
X000323Y009357D01*
X000292Y009274D01*
X000264Y009189D01*
X000241Y009102D01*
X000221Y009015D01*
X000206Y008927D01*
X000196Y008838D01*
X000189Y008748D01*
X000187Y008659D01*
X000189Y008570D01*
X000196Y008480D01*
X000206Y008391D01*
X000221Y008303D01*
X000241Y008216D01*
X000264Y008129D01*
X000292Y008044D01*
X000323Y007961D01*
X000359Y007878D01*
X000399Y007798D01*
X000442Y007720D01*
X000489Y007644D01*
X000540Y007570D01*
X000594Y007499D01*
X000652Y007430D01*
X000712Y007365D01*
X000776Y007302D01*
X000843Y007243D01*
X000913Y007186D01*
X000985Y007134D01*
X001060Y007084D01*
X001139Y007044D02*
X001139Y006966D01*
X001099Y006966D01*
X001099Y010194D02*
X001099Y014958D01*
X001660Y014941D02*
X001967Y014941D01*
X001099Y014957D02*
X001100Y015022D01*
X001105Y015086D01*
X001113Y015149D01*
X001126Y015213D01*
X001142Y015275D01*
X001162Y015336D01*
X001186Y015396D01*
X001213Y015454D01*
X001244Y015510D01*
X001279Y015565D01*
X001316Y015617D01*
X001357Y015667D01*
X001400Y015714D01*
X001447Y015758D01*
X001496Y015800D01*
X001548Y015838D01*
X001601Y015873D01*
X001657Y015905D01*
X001715Y015934D01*
X001774Y015959D01*
X001835Y015980D01*
X001897Y015997D01*
X001960Y016011D01*
X002023Y016020D01*
X002087Y016026D01*
X002152Y016028D01*
X002216Y016026D01*
X002280Y016020D01*
X003027Y014941D02*
X006849Y014941D01*
X006690Y014782D02*
X003185Y014782D01*
X003344Y014624D02*
X006532Y014624D01*
X006429Y014465D02*
X003447Y014465D01*
X003447Y014306D02*
X006429Y014306D01*
X006429Y014148D02*
X003447Y014148D01*
X003447Y013989D02*
X006429Y013989D01*
X006429Y013831D02*
X003447Y013831D01*
X003386Y013672D02*
X006490Y013672D01*
X006649Y013514D02*
X003227Y013514D01*
X003068Y013355D02*
X006807Y013355D01*
X006966Y013197D02*
X002910Y013197D01*
X002084Y013197D02*
X001659Y013197D01*
X001659Y013355D02*
X001925Y013355D01*
X001767Y013514D02*
X001659Y013514D01*
X001659Y013038D02*
X009530Y013038D01*
X009467Y013197D02*
X007792Y013197D01*
X007950Y013355D02*
X009467Y013355D01*
X009513Y013514D02*
X008109Y013514D01*
X008267Y013672D02*
X009623Y013672D01*
X009664Y012880D02*
X001659Y012880D01*
X001659Y012721D02*
X009398Y012721D01*
X009241Y012563D02*
X001659Y012563D01*
X001659Y012404D02*
X009178Y012404D01*
X009169Y012245D02*
X001659Y012245D01*
X001659Y012087D02*
X009212Y012087D01*
X009326Y011928D02*
X001659Y011928D01*
X001659Y011770D02*
X009444Y011770D01*
X009245Y011611D02*
X001659Y011611D01*
X001659Y011453D02*
X009169Y011453D01*
X009147Y011294D02*
X007369Y011294D01*
X007558Y011136D02*
X009171Y011136D01*
X009249Y010977D02*
X007717Y010977D01*
X007875Y010819D02*
X009454Y010819D01*
X009294Y010660D02*
X008034Y010660D01*
X008192Y010501D02*
X009189Y010501D01*
X009147Y010343D02*
X008351Y010343D01*
X008510Y010184D02*
X009150Y010184D01*
X009528Y009550D02*
X009467Y009402D01*
X008278Y009709D02*
X007054Y009709D01*
X007083Y009867D02*
X008120Y009867D01*
X007961Y010026D02*
X007083Y010026D01*
X007083Y010184D02*
X007803Y010184D01*
X007644Y010343D02*
X007083Y010343D01*
X007083Y010501D02*
X007485Y010501D01*
X007327Y010660D02*
X007065Y010660D01*
X013687Y012245D02*
X013747Y012245D01*
X014611Y009867D02*
X015847Y009867D01*
X015689Y009709D02*
X014769Y009709D01*
X014783Y009550D02*
X015675Y009550D01*
X015675Y009392D02*
X014783Y009392D01*
X014748Y009233D02*
X015710Y009233D01*
X016571Y008916D02*
X016966Y008916D01*
X016849Y008757D02*
X016688Y008757D01*
X016728Y008599D02*
X016809Y008599D01*
X016809Y008440D02*
X016728Y008440D01*
X016728Y008282D02*
X016809Y008282D01*
X016809Y008123D02*
X016728Y008123D01*
X016728Y007965D02*
X016809Y007965D01*
X016871Y007806D02*
X016666Y007806D01*
X016504Y007648D02*
X017033Y007648D01*
X017880Y007172D02*
X018472Y007172D01*
X018630Y007331D02*
X018038Y007331D01*
X018197Y007489D02*
X018644Y007489D01*
X018644Y007648D02*
X018504Y007648D01*
X018313Y007014D02*
X017721Y007014D01*
X017562Y006855D02*
X018155Y006855D01*
X017996Y006696D02*
X017404Y006696D01*
X017838Y006538D02*
X014647Y006538D01*
X019304Y009077D02*
X019304Y009077D01*
X017847Y009867D02*
X016532Y009867D01*
X020767Y009709D02*
X024100Y009709D01*
X024035Y009867D02*
X021023Y009867D01*
X021182Y010026D02*
X024017Y010026D01*
X024017Y010184D02*
X021248Y010184D01*
X021258Y010343D02*
X024082Y010343D01*
X024184Y010501D02*
X021217Y010501D01*
X021105Y010660D02*
X024379Y010660D01*
X024459Y010819D02*
X020972Y010819D01*
X021178Y010977D02*
X024459Y010977D01*
X024459Y011136D02*
X021256Y011136D01*
X021279Y011294D02*
X024459Y011294D01*
X024459Y011453D02*
X021258Y011453D01*
X021182Y011611D02*
X024459Y011611D01*
X024459Y011770D02*
X020983Y011770D01*
X021129Y011928D02*
X024459Y011928D01*
X024453Y012563D02*
X021212Y012563D01*
X021072Y012721D02*
X024471Y012721D01*
X024471Y012880D02*
X020763Y012880D01*
X020897Y013038D02*
X024471Y013038D01*
X024471Y013197D02*
X020960Y013197D01*
X020960Y013355D02*
X024471Y013355D01*
X024471Y013514D02*
X020914Y013514D01*
X020803Y013672D02*
X024471Y013672D01*
X025183Y014465D02*
X026044Y014465D01*
X025913Y014624D02*
X025315Y014624D01*
X026421Y014624D02*
X026557Y014624D01*
X026557Y014782D02*
X026421Y014782D01*
X026421Y014465D02*
X026557Y014465D01*
X020675Y015416D02*
X020122Y015416D01*
X020280Y015258D02*
X020516Y015258D01*
X020438Y015099D02*
X020358Y015099D01*
X020358Y014941D02*
X020414Y014941D01*
X026557Y009980D02*
X026557Y009379D01*
X026621Y009387D01*
X026706Y009410D01*
X026787Y009444D01*
X026863Y009488D01*
X026933Y009541D01*
X026996Y009604D01*
X027049Y009674D01*
X027093Y009750D01*
X027127Y009831D01*
X027150Y009916D01*
X027158Y009980D01*
X026557Y009980D01*
X026557Y009867D02*
X026421Y009867D01*
X026421Y009709D02*
X026557Y009709D01*
X026557Y009550D02*
X026421Y009550D01*
X026421Y009392D02*
X026557Y009392D01*
X026637Y009392D02*
X027677Y009392D01*
X027567Y009233D02*
X020960Y009233D01*
X020960Y009392D02*
X024485Y009392D01*
X024228Y009550D02*
X020898Y009550D01*
X020912Y009075D02*
X027476Y009075D01*
X027433Y008916D02*
X020799Y008916D01*
X020750Y006855D02*
X020588Y006855D01*
X020112Y006855D02*
X019578Y006855D01*
X019578Y006696D02*
X019954Y006696D01*
X019819Y006538D02*
X019578Y006538D01*
X019578Y006379D02*
X019797Y006379D01*
X019797Y006221D02*
X019578Y006221D01*
X019578Y006062D02*
X019797Y006062D01*
X019797Y005904D02*
X019578Y005904D01*
X019578Y005745D02*
X019817Y005745D01*
X020297Y005745D02*
X020404Y005745D01*
X020384Y005904D02*
X020317Y005904D01*
X021656Y006855D02*
X021807Y006855D01*
X024934Y009392D02*
X026341Y009392D01*
X026036Y009550D02*
X025190Y009550D01*
X025318Y009709D02*
X025909Y009709D01*
X025842Y009867D02*
X025384Y009867D01*
X026942Y009550D02*
X027836Y009550D01*
X028098Y009709D02*
X027069Y009709D01*
X027137Y009867D02*
X029116Y009867D01*
X029061Y009709D02*
X029257Y009709D01*
X029323Y009550D02*
X029446Y009550D01*
X029603Y010194D02*
X029678Y010144D01*
X029750Y010092D01*
X029820Y010035D01*
X029887Y009976D01*
X029951Y009913D01*
X030011Y009848D01*
X030069Y009779D01*
X030123Y009708D01*
X030174Y009634D01*
X030221Y009558D01*
X030264Y009480D01*
X030304Y009400D01*
X030340Y009317D01*
X030371Y009234D01*
X030399Y009149D01*
X030422Y009062D01*
X030442Y008975D01*
X030457Y008887D01*
X030467Y008798D01*
X030474Y008708D01*
X030476Y008619D01*
X030474Y008530D01*
X030467Y008440D01*
X030457Y008351D01*
X030442Y008263D01*
X030422Y008176D01*
X030399Y008089D01*
X030371Y008004D01*
X030340Y007921D01*
X030304Y007838D01*
X030264Y007758D01*
X030221Y007680D01*
X030174Y007604D01*
X030123Y007530D01*
X030069Y007459D01*
X030011Y007390D01*
X029951Y007325D01*
X029887Y007262D01*
X029820Y007203D01*
X029750Y007146D01*
X029678Y007094D01*
X029603Y007044D01*
X029603Y002084D01*
X029043Y002416D02*
X028582Y002416D01*
X028740Y002574D02*
X029043Y002574D01*
X029043Y002733D02*
X028899Y002733D01*
X029603Y002084D02*
X029602Y002019D01*
X029597Y001955D01*
X029589Y001892D01*
X029576Y001828D01*
X029560Y001766D01*
X029540Y001705D01*
X029516Y001645D01*
X029489Y001587D01*
X029458Y001531D01*
X029423Y001476D01*
X029386Y001424D01*
X029345Y001374D01*
X029302Y001327D01*
X029255Y001283D01*
X029206Y001241D01*
X029154Y001203D01*
X029101Y001168D01*
X029045Y001136D01*
X028987Y001107D01*
X028928Y001082D01*
X028867Y001061D01*
X028805Y001044D01*
X028742Y001030D01*
X028679Y001021D01*
X028615Y001015D01*
X028550Y001013D01*
X028486Y001015D01*
X028422Y001021D01*
X028938Y007489D02*
X029256Y007489D01*
X029265Y007648D02*
X029446Y007648D01*
X029441Y007806D02*
X029446Y007806D01*
X016808Y001060D02*
X016758Y000985D01*
X016706Y000913D01*
X016649Y000843D01*
X016590Y000776D01*
X016527Y000712D01*
X016462Y000652D01*
X016393Y000594D01*
X016322Y000540D01*
X016248Y000489D01*
X016172Y000442D01*
X016094Y000399D01*
X016014Y000359D01*
X015931Y000323D01*
X015848Y000292D01*
X015763Y000264D01*
X015676Y000241D01*
X015589Y000221D01*
X015501Y000206D01*
X015412Y000196D01*
X015322Y000189D01*
X015233Y000187D01*
X015144Y000189D01*
X015054Y000196D01*
X014965Y000206D01*
X014877Y000221D01*
X014790Y000241D01*
X014703Y000264D01*
X014618Y000292D01*
X014535Y000323D01*
X014452Y000359D01*
X014372Y000399D01*
X014294Y000442D01*
X014218Y000489D01*
X014144Y000540D01*
X014073Y000594D01*
X014004Y000652D01*
X013939Y000712D01*
X013876Y000776D01*
X013817Y000843D01*
X013760Y000913D01*
X013708Y000985D01*
X013658Y001060D01*
X009683Y004160D02*
X009404Y004160D01*
X009552Y004318D02*
X009573Y004318D01*
X009600Y004794D02*
X009486Y004794D01*
X009325Y004952D02*
X009747Y004952D01*
X002202Y001021D02*
X002137Y001022D01*
X002073Y001027D01*
X002010Y001035D01*
X001946Y001048D01*
X001884Y001064D01*
X001823Y001084D01*
X001763Y001108D01*
X001705Y001135D01*
X001649Y001166D01*
X001594Y001201D01*
X001542Y001238D01*
X001492Y001279D01*
X001445Y001322D01*
X001401Y001369D01*
X001359Y001418D01*
X001321Y001470D01*
X001286Y001523D01*
X001254Y001579D01*
X001225Y001637D01*
X001200Y001696D01*
X001179Y001757D01*
X001162Y001819D01*
X001148Y001882D01*
X001139Y001945D01*
X001133Y002009D01*
X001131Y002074D01*
X001133Y002138D01*
X001139Y002202D01*
X001699Y002416D02*
X002018Y002416D01*
X001860Y002574D02*
X001699Y002574D01*
X001699Y002733D02*
X001701Y002733D01*
X001659Y014782D02*
X001808Y014782D01*
X009371Y014782D02*
X009372Y014782D01*
X009684Y015099D02*
X009684Y015099D01*
D11*
X020057Y006432D02*
X020350Y006725D01*
X020644Y006432D01*
X020644Y005845D01*
X020978Y005845D02*
X020978Y006725D01*
X021418Y006725D01*
X021565Y006579D01*
X021565Y006285D01*
X021418Y006138D01*
X020978Y006138D01*
X020644Y006285D02*
X020057Y006285D01*
X020057Y006432D02*
X020057Y005845D01*
X021898Y005991D02*
X022045Y005845D01*
X022339Y005845D01*
X022486Y005991D01*
X021898Y005991D02*
X021898Y006579D01*
X022045Y006725D01*
X022339Y006725D01*
X022486Y006579D01*
D12*
X022473Y005406D02*
X022359Y005406D01*
X022301Y005348D01*
X022301Y005119D01*
X022531Y005348D01*
X022531Y005119D01*
X022473Y005062D01*
X022359Y005062D01*
X022301Y005119D01*
X022177Y005119D02*
X022177Y005062D01*
X022120Y005062D01*
X022120Y005119D01*
X022177Y005119D01*
X021987Y005062D02*
X021758Y005062D01*
X021872Y005062D02*
X021872Y005406D01*
X021758Y005291D01*
X021624Y005291D02*
X021510Y005062D01*
X021395Y005291D01*
X021262Y005234D02*
X021262Y005176D01*
X021033Y005176D01*
X021033Y005119D02*
X021033Y005234D01*
X021090Y005291D01*
X021205Y005291D01*
X021262Y005234D01*
X021205Y005062D02*
X021090Y005062D01*
X021033Y005119D01*
X020902Y005291D02*
X020845Y005291D01*
X020731Y005176D01*
X020731Y005062D02*
X020731Y005291D01*
X022473Y005406D02*
X022531Y005348D01*
D13*
X021376Y002234D02*
X021376Y002160D01*
X021376Y002014D02*
X021376Y001720D01*
X021303Y001720D02*
X021450Y001720D01*
X021683Y001793D02*
X021757Y001720D01*
X021683Y001793D02*
X021683Y002087D01*
X021610Y002014D02*
X021757Y002014D01*
X021917Y001793D02*
X021990Y001793D01*
X021990Y001720D01*
X021917Y001720D01*
X021917Y001793D01*
X022147Y001720D02*
X022147Y002014D01*
X022294Y002014D02*
X022367Y002014D01*
X022294Y002014D02*
X022147Y001867D01*
X022531Y001793D02*
X022604Y001720D01*
X022824Y001720D01*
X022824Y002014D01*
X022531Y002014D02*
X022531Y001793D01*
X021376Y002014D02*
X021303Y002014D01*
X021139Y002014D02*
X020919Y001867D01*
X021139Y001720D01*
X020919Y001720D02*
X020919Y002160D01*
X020686Y002160D02*
X020686Y001720D01*
X020759Y001720D02*
X020612Y001720D01*
X020446Y001867D02*
X020152Y001867D01*
X020152Y001940D02*
X020152Y001793D01*
X020225Y001720D01*
X020372Y001720D01*
X020446Y001867D02*
X020446Y001940D01*
X020372Y002014D01*
X020225Y002014D01*
X020152Y001940D01*
X019985Y002014D02*
X019692Y001720D01*
X019532Y001720D02*
X019385Y001720D01*
X019458Y001720D02*
X019458Y002014D01*
X019385Y002014D01*
X019458Y002160D02*
X019458Y002234D01*
X019692Y002014D02*
X019985Y001720D01*
X020612Y002160D02*
X020686Y002160D01*
X019218Y001940D02*
X019218Y001793D01*
X019145Y001720D01*
X018924Y001720D01*
X018924Y001573D02*
X018924Y002014D01*
X019145Y002014D01*
X019218Y001940D01*
D14*
X018269Y005048D02*
X018269Y005568D01*
X017269Y005568D02*
X017269Y005048D01*
X016269Y005048D02*
X016269Y005568D01*
X015269Y005568D02*
X015269Y005048D01*
X014269Y005048D02*
X014269Y005568D01*
X013269Y005568D02*
X013269Y005048D01*
X012269Y005048D02*
X012269Y005568D01*
X012269Y008048D02*
X012269Y008568D01*
X013269Y008568D02*
X013269Y008048D01*
X014269Y008048D02*
X014269Y008568D01*
X015269Y008568D02*
X015269Y008048D01*
X016269Y008048D02*
X016269Y008568D01*
X017269Y008568D02*
X017269Y008048D01*
X018269Y008048D02*
X018269Y008568D01*
D15*
X019442Y008265D03*
X022442Y008265D03*
X018686Y010737D03*
X015686Y010737D03*
X014772Y010702D03*
X011772Y010702D03*
X011009Y008257D03*
X010985Y007202D03*
X011017Y006115D03*
X008017Y006115D03*
X007985Y007202D03*
X008009Y008257D03*
X019898Y014989D03*
X020898Y014989D03*
D16*
X018190Y009481D03*
X016190Y009481D03*
X014269Y009481D03*
X012269Y009481D03*
D17*
X008854Y004555D02*
X008792Y004617D01*
X008937Y004764D01*
X009140Y004765D01*
X009287Y004620D01*
X009288Y004417D01*
X009143Y004270D01*
X008940Y004269D01*
X008793Y004414D01*
X008792Y004617D01*
X008885Y004579D01*
X008975Y004671D01*
X009102Y004672D01*
X009194Y004582D01*
X009195Y004455D01*
X009105Y004363D01*
X008978Y004362D01*
X008886Y004452D01*
X008885Y004579D01*
X008978Y004541D01*
X009015Y004578D01*
X009064Y004579D01*
X009101Y004542D01*
X009102Y004493D01*
X009065Y004456D01*
X009016Y004455D01*
X008979Y004492D01*
X008978Y004541D01*
D18*
X010040Y004524D03*
D19*
X014221Y003785D03*
X016221Y003785D03*
D20*
X024709Y010048D03*
X026489Y010048D03*
X026489Y014970D03*
X024709Y014970D03*
D21*
X024107Y007237D03*
X025682Y007237D03*
X027257Y007237D03*
X006548Y007182D03*
X004973Y007182D03*
X003398Y007182D03*
X003363Y010190D03*
X004938Y010190D03*
X006513Y010190D03*
D22*
X007379Y014127D03*
X002497Y014127D03*
X002532Y003245D03*
X007414Y003245D03*
X023241Y003300D03*
X028123Y003300D03*
D23*
X017162Y012674D03*
X016178Y012674D03*
X014209Y012674D03*
X013225Y012674D03*
X015194Y014643D03*
D24*
X010322Y012296D02*
X009672Y012296D01*
X009672Y011296D02*
X010322Y011296D01*
X010322Y010296D02*
X009672Y010296D01*
X020105Y010296D02*
X020755Y010296D01*
X020755Y011296D02*
X020105Y011296D01*
X020105Y012296D02*
X020755Y012296D01*
D25*
X020430Y013296D03*
X020430Y009296D03*
X009997Y009296D03*
X009997Y013296D03*
D26*
X009506Y015109D02*
X009454Y015161D01*
X009625Y015162D01*
X009748Y015041D01*
X009749Y014870D01*
X009628Y014747D01*
X009457Y014746D01*
X009334Y014867D01*
X009333Y015038D01*
X009454Y015161D01*
X009486Y015083D01*
X009594Y015083D01*
X009670Y015009D01*
X009670Y014901D01*
X009596Y014825D01*
X009488Y014825D01*
X009412Y014899D01*
X009412Y015007D01*
X009486Y015083D01*
X009519Y015005D01*
X009562Y015005D01*
X009592Y014976D01*
X009592Y014933D01*
X009563Y014903D01*
X009520Y014903D01*
X009490Y014932D01*
X009490Y014975D01*
X009519Y015005D01*
X010496Y015116D02*
X010444Y015168D01*
X010615Y015169D01*
X010738Y015048D01*
X010739Y014877D01*
X010618Y014754D01*
X010447Y014753D01*
X010324Y014874D01*
X010323Y015045D01*
X010444Y015168D01*
X010476Y015090D01*
X010584Y015090D01*
X010660Y015016D01*
X010660Y014908D01*
X010586Y014832D01*
X010478Y014832D01*
X010402Y014906D01*
X010402Y015014D01*
X010476Y015090D01*
X010509Y015012D01*
X010552Y015012D01*
X010582Y014983D01*
X010582Y014940D01*
X010553Y014910D01*
X010510Y014910D01*
X010480Y014939D01*
X010480Y014982D01*
X010509Y015012D01*
D27*
X010531Y014961D02*
X011099Y014393D01*
X011099Y010903D01*
X010476Y010279D01*
X010014Y010279D01*
X009997Y010296D01*
X008540Y009800D02*
X011650Y009800D01*
X012438Y010588D01*
X012871Y010588D01*
X013225Y010942D01*
X013225Y012674D01*
X013225Y013186D01*
X013540Y013501D01*
X016808Y013501D01*
X017162Y013147D01*
X017162Y012674D01*
X018706Y012879D02*
X020806Y014979D01*
X020898Y014989D01*
X018706Y012879D02*
X018706Y010779D01*
X018686Y010737D01*
X019446Y011139D02*
X019603Y011296D01*
X020430Y011296D01*
X019446Y011139D02*
X019446Y009289D01*
X020233Y008501D01*
X020233Y008107D01*
X019328Y007202D01*
X019328Y005115D01*
X018422Y004210D01*
X017241Y004210D01*
X016816Y003785D01*
X016221Y003785D01*
X013816Y004840D02*
X013304Y004328D01*
X011572Y004328D01*
X008934Y006966D01*
X008934Y007871D01*
X008580Y008226D01*
X008040Y008226D01*
X008040Y008214D01*
X008006Y008179D01*
X004306Y008179D01*
X003406Y007279D01*
X003398Y007182D01*
X004973Y007182D02*
X005006Y007179D01*
X006506Y007179D01*
X006548Y007182D01*
X006606Y007179D01*
X007906Y007179D01*
X007985Y007202D01*
X008040Y008226D02*
X008009Y008257D01*
X008540Y009800D02*
X007280Y011060D01*
X005272Y011060D01*
X004938Y010726D01*
X004938Y010190D01*
X011009Y008257D02*
X011028Y008257D01*
X012005Y007281D01*
X012753Y007281D01*
X013265Y007792D01*
X013265Y008304D01*
X013269Y008308D01*
X013269Y008542D01*
X014206Y009479D01*
X014269Y009481D01*
X014269Y008308D02*
X014288Y008289D01*
X014288Y007320D01*
X013816Y006848D01*
X013107Y006848D01*
X012269Y006009D01*
X012269Y005308D01*
X013816Y004840D02*
X013816Y006060D01*
X014603Y006848D01*
X017202Y006848D01*
X018269Y007914D01*
X018269Y008308D01*
X018894Y008737D02*
X018894Y007241D01*
X017280Y005627D01*
X017280Y005320D01*
X017269Y005308D01*
X016269Y005308D01*
X014306Y005379D02*
X014269Y005308D01*
X018206Y009426D02*
X018894Y008737D01*
X018206Y009426D02*
X018206Y009479D01*
X020430Y012296D02*
X024540Y012296D01*
X024709Y012127D01*
X024709Y010048D01*
X026489Y010048D02*
X026506Y010079D01*
X026506Y014879D01*
X026489Y014970D01*
X024721Y014958D02*
X024709Y014970D01*
X024721Y014958D02*
X024721Y012477D01*
X024540Y012296D01*
D28*
X018265Y003147D03*
X012123Y003186D03*
D29*
X015233Y001966D03*
X002083Y008698D03*
X028580Y008619D03*
M02*
