G75*
G70*
%OFA0B0*%
%FSLAX24Y24*%
%IPPOS*%
%LPD*%
%AMOC8*
5,1,8,0,0,1.08239X$1,22.5*
%
%ADD10C,0.0520*%
%ADD11OC8,0.0520*%
%ADD12OC8,0.0630*%
%ADD13C,0.0124*%
%ADD14C,0.0620*%
%ADD15OC8,0.1240*%
%ADD16C,0.0984*%
%ADD17R,0.0740X0.0740*%
%ADD18OC8,0.1500*%
%ADD19C,0.0860*%
%ADD20C,0.0650*%
%ADD21C,0.0660*%
%ADD22C,0.0104*%
%ADD23C,0.0100*%
%ADD24C,0.0160*%
%ADD25C,0.1500*%
%ADD26C,0.1969*%
D10*
X012269Y005048D02*
X012269Y005568D01*
X013269Y005568D02*
X013269Y005048D01*
X014269Y005048D02*
X014269Y005568D01*
X015269Y005568D02*
X015269Y005048D01*
X016269Y005048D02*
X016269Y005568D01*
X017269Y005568D02*
X017269Y005048D01*
X018269Y005048D02*
X018269Y005568D01*
X018269Y008048D02*
X018269Y008568D01*
X017269Y008568D02*
X017269Y008048D01*
X016269Y008048D02*
X016269Y008568D01*
X015269Y008568D02*
X015269Y008048D01*
X014269Y008048D02*
X014269Y008568D01*
X013269Y008568D02*
X013269Y008048D01*
X012269Y008048D02*
X012269Y008568D01*
D11*
X011009Y008257D03*
X010985Y007202D03*
X011017Y006115D03*
X008017Y006115D03*
X007985Y007202D03*
X008009Y008257D03*
X011772Y010702D03*
X014772Y010702D03*
X015686Y010737D03*
X018686Y010737D03*
X019442Y008265D03*
X022442Y008265D03*
X020898Y014989D03*
X019898Y014989D03*
D12*
X018190Y009481D03*
X016190Y009481D03*
X014269Y009481D03*
X012269Y009481D03*
D13*
X008854Y004555D02*
X008792Y004617D01*
X008937Y004764D01*
X009140Y004765D01*
X009287Y004620D01*
X009288Y004417D01*
X009143Y004270D01*
X008940Y004269D01*
X008793Y004414D01*
X008792Y004617D01*
X008885Y004579D01*
X008975Y004671D01*
X009102Y004672D01*
X009194Y004582D01*
X009195Y004455D01*
X009105Y004363D01*
X008978Y004362D01*
X008886Y004452D01*
X008885Y004579D01*
X008978Y004541D01*
X009015Y004578D01*
X009064Y004579D01*
X009101Y004542D01*
X009102Y004493D01*
X009065Y004456D01*
X009016Y004455D01*
X008979Y004492D01*
X008978Y004541D01*
D14*
X010040Y004524D03*
D15*
X014221Y003785D03*
X016221Y003785D03*
D16*
X024709Y010048D03*
X026489Y010048D03*
X026489Y014970D03*
X024709Y014970D03*
D17*
X024107Y007237D03*
X025682Y007237D03*
X027257Y007237D03*
X006548Y007182D03*
X004973Y007182D03*
X003398Y007182D03*
X003363Y010190D03*
X004938Y010190D03*
X006513Y010190D03*
D18*
X007379Y014127D03*
X002497Y014127D03*
X002532Y003245D03*
X007414Y003245D03*
X023241Y003300D03*
X028123Y003300D03*
D19*
X017162Y012674D03*
X016178Y012674D03*
X014209Y012674D03*
X013225Y012674D03*
X015194Y014643D03*
D20*
X010322Y012296D02*
X009672Y012296D01*
X009672Y011296D02*
X010322Y011296D01*
X010322Y010296D02*
X009672Y010296D01*
X020105Y010296D02*
X020755Y010296D01*
X020755Y011296D02*
X020105Y011296D01*
X020105Y012296D02*
X020755Y012296D01*
D21*
X020430Y013296D03*
X020430Y009296D03*
X009997Y009296D03*
X009997Y013296D03*
D22*
X009506Y015109D02*
X009454Y015161D01*
X009625Y015162D01*
X009748Y015041D01*
X009749Y014870D01*
X009628Y014747D01*
X009457Y014746D01*
X009334Y014867D01*
X009333Y015038D01*
X009454Y015161D01*
X009486Y015083D01*
X009594Y015083D01*
X009670Y015009D01*
X009670Y014901D01*
X009596Y014825D01*
X009488Y014825D01*
X009412Y014899D01*
X009412Y015007D01*
X009486Y015083D01*
X009519Y015005D01*
X009562Y015005D01*
X009592Y014976D01*
X009592Y014933D01*
X009563Y014903D01*
X009520Y014903D01*
X009490Y014932D01*
X009490Y014975D01*
X009519Y015005D01*
X010496Y015116D02*
X010444Y015168D01*
X010615Y015169D01*
X010738Y015048D01*
X010739Y014877D01*
X010618Y014754D01*
X010447Y014753D01*
X010324Y014874D01*
X010323Y015045D01*
X010444Y015168D01*
X010476Y015090D01*
X010584Y015090D01*
X010660Y015016D01*
X010660Y014908D01*
X010586Y014832D01*
X010478Y014832D01*
X010402Y014906D01*
X010402Y015014D01*
X010476Y015090D01*
X010509Y015012D01*
X010552Y015012D01*
X010582Y014983D01*
X010582Y014940D01*
X010553Y014910D01*
X010510Y014910D01*
X010480Y014939D01*
X010480Y014982D01*
X010509Y015012D01*
D23*
X009997Y011296D02*
X012713Y011296D01*
X013343Y010666D01*
X013343Y009328D01*
X013816Y008855D01*
X013816Y007674D01*
X015272Y006218D01*
X016532Y006218D01*
X016769Y005981D01*
X016769Y004722D01*
X017123Y004367D01*
X019170Y004367D01*
X019442Y004639D01*
X019442Y008265D01*
X019209Y009485D02*
X021457Y007237D01*
X024107Y007237D01*
X024706Y008179D02*
X025606Y007279D01*
X025682Y007237D01*
X027257Y007237D01*
X024706Y008179D02*
X022506Y008179D01*
X022442Y008265D01*
X019209Y009485D02*
X018194Y009485D01*
X018190Y009481D01*
X017206Y008379D02*
X017106Y008379D01*
X016506Y008979D01*
X014806Y008979D01*
X014306Y009479D01*
X014269Y009481D01*
X015306Y008279D02*
X015306Y007405D01*
X015863Y006848D01*
X017831Y006848D01*
X018265Y006414D01*
X018265Y005351D01*
X018304Y005312D01*
X018272Y005312D01*
X018269Y005308D01*
X014269Y005308D02*
X014269Y006277D01*
X013304Y007241D01*
X011060Y007241D01*
X011020Y007202D01*
X010993Y006139D02*
X009839Y006139D01*
X008973Y007005D01*
X008973Y008344D01*
X009052Y008422D01*
X010233Y008422D01*
X011335Y009525D01*
X011335Y010115D01*
X011772Y010552D01*
X011772Y010702D01*
X010006Y011279D02*
X009997Y011296D01*
X008505Y010190D02*
X008973Y009722D01*
X008973Y008344D01*
X008505Y010190D02*
X006513Y010190D01*
X008017Y006115D02*
X008017Y005541D01*
X009040Y004517D01*
X010040Y004524D02*
X010041Y004525D01*
X010587Y004525D01*
X010784Y004328D01*
X012871Y004328D01*
X013269Y004726D01*
X013269Y005308D01*
X011017Y006115D02*
X010993Y006139D01*
X017206Y008379D02*
X017269Y008308D01*
D24*
X001867Y001695D02*
X001774Y001799D01*
X001713Y001925D01*
X001691Y002063D01*
X001691Y002072D01*
X001699Y002090D01*
X001699Y002167D01*
X001708Y002243D01*
X001699Y002278D01*
X001699Y002735D01*
X002139Y002295D01*
X002926Y002295D01*
X003482Y002852D01*
X003482Y003639D01*
X002926Y004195D01*
X002139Y004195D01*
X001699Y003755D01*
X001699Y006854D01*
X001699Y007156D01*
X001613Y007362D01*
X001493Y007482D01*
X001493Y007671D01*
X001626Y007594D01*
X001928Y007514D01*
X002239Y007514D01*
X002541Y007594D01*
X002811Y007750D01*
X003031Y007971D01*
X003187Y008241D01*
X003268Y008542D01*
X003268Y008854D01*
X003187Y009155D01*
X003031Y009425D01*
X002811Y009646D01*
X002541Y009801D01*
X002239Y009882D01*
X001928Y009882D01*
X001626Y009801D01*
X001493Y009724D01*
X001493Y009796D01*
X001574Y009877D01*
X001659Y010083D01*
X001659Y013621D01*
X002103Y013177D01*
X002890Y013177D01*
X003447Y013734D01*
X003447Y014521D01*
X002890Y015077D01*
X002103Y015077D01*
X001659Y014633D01*
X001659Y014852D01*
X001661Y014857D01*
X001659Y014962D01*
X001659Y014971D01*
X001663Y015038D01*
X001700Y015173D01*
X001773Y015292D01*
X001877Y015386D01*
X002003Y015446D01*
X002141Y015469D01*
X002151Y015468D01*
X002169Y015461D01*
X002245Y015461D01*
X002322Y015451D01*
X002356Y015461D01*
X024221Y015461D01*
X024122Y015362D01*
X024017Y015108D01*
X024017Y014832D01*
X024122Y014578D01*
X024317Y014383D01*
X024571Y014278D01*
X024847Y014278D01*
X025101Y014383D01*
X025296Y014578D01*
X025401Y014832D01*
X025401Y015108D01*
X025296Y015362D01*
X025197Y015461D01*
X026001Y015461D01*
X025902Y015362D01*
X025797Y015108D01*
X025797Y014832D01*
X025902Y014578D01*
X026097Y014383D01*
X026351Y014278D01*
X026627Y014278D01*
X026881Y014383D01*
X027076Y014578D01*
X027181Y014832D01*
X027181Y015108D01*
X027076Y015362D01*
X026977Y015461D01*
X028434Y015461D01*
X028439Y015459D01*
X028544Y015461D01*
X028553Y015461D01*
X028621Y015457D01*
X028756Y015420D01*
X028875Y015347D01*
X028968Y015243D01*
X029029Y015117D01*
X029051Y014979D01*
X029051Y014969D01*
X029043Y014951D01*
X029043Y014874D01*
X029034Y014798D01*
X029043Y014764D01*
X029043Y010241D01*
X029032Y010177D01*
X029043Y010130D01*
X029043Y010043D01*
X029128Y009837D01*
X029286Y009680D01*
X029446Y009614D01*
X029446Y009428D01*
X029307Y009567D01*
X029037Y009723D01*
X028735Y009803D01*
X028424Y009803D01*
X028122Y009723D01*
X027852Y009567D01*
X027632Y009346D01*
X027476Y009076D01*
X027395Y008775D01*
X027395Y008463D01*
X027476Y008162D01*
X027632Y007892D01*
X027852Y007672D01*
X028122Y007516D01*
X028424Y007435D01*
X028735Y007435D01*
X029037Y007516D01*
X029307Y007672D01*
X029446Y007811D01*
X029446Y007623D01*
X029425Y007603D01*
X029335Y007539D01*
X029286Y007519D01*
X029252Y007485D01*
X029212Y007460D01*
X029174Y007407D01*
X029128Y007362D01*
X029110Y007318D01*
X029083Y007279D01*
X029068Y007216D01*
X029043Y007156D01*
X029043Y007108D01*
X029032Y007062D01*
X029043Y006998D01*
X029043Y003723D01*
X028516Y004250D01*
X027729Y004250D01*
X027173Y003694D01*
X027173Y002907D01*
X027729Y002350D01*
X028516Y002350D01*
X029043Y002877D01*
X029043Y002190D01*
X029041Y002185D01*
X029043Y002079D01*
X029043Y002071D01*
X029040Y002003D01*
X029003Y001868D01*
X028929Y001749D01*
X028825Y001656D01*
X028699Y001595D01*
X028561Y001573D01*
X028551Y001573D01*
X028533Y001581D01*
X028457Y001581D01*
X028381Y001590D01*
X028346Y001581D01*
X017031Y001581D01*
X017010Y001594D01*
X016790Y001631D01*
X016573Y001581D01*
X016396Y001454D01*
X016305Y001454D01*
X016337Y001509D01*
X016417Y001810D01*
X016417Y002122D01*
X016337Y002423D01*
X016181Y002693D01*
X015960Y002913D01*
X015690Y003069D01*
X015389Y003150D01*
X015077Y003150D01*
X014776Y003069D01*
X014506Y002913D01*
X014285Y002693D01*
X014130Y002423D01*
X014049Y002122D01*
X014049Y001810D01*
X014130Y001509D01*
X014161Y001454D01*
X014071Y001454D01*
X013893Y001581D01*
X013676Y001631D01*
X013456Y001594D01*
X013435Y001581D01*
X002307Y001581D01*
X002302Y001583D01*
X002197Y001581D01*
X002189Y001581D01*
X002121Y001584D01*
X001986Y001621D01*
X001867Y001695D01*
X001789Y001782D02*
X014056Y001782D01*
X014049Y001940D02*
X001711Y001940D01*
X001699Y002099D02*
X014049Y002099D01*
X014085Y002257D02*
X012363Y002257D01*
X012312Y002236D02*
X012661Y002381D01*
X012928Y002648D01*
X013073Y002997D01*
X013073Y003375D01*
X012928Y003724D01*
X012661Y003991D01*
X012452Y004078D01*
X012921Y004078D01*
X013012Y004116D01*
X013083Y004186D01*
X013480Y004584D01*
X013507Y004649D01*
X013529Y004658D01*
X013658Y004788D01*
X013728Y004957D01*
X013728Y005660D01*
X013658Y005829D01*
X013529Y005958D01*
X013360Y006028D01*
X013177Y006028D01*
X013008Y005958D01*
X012879Y005829D01*
X012809Y005660D01*
X012809Y004957D01*
X012879Y004788D01*
X012928Y004738D01*
X012767Y004578D01*
X010888Y004578D01*
X010799Y004666D01*
X010729Y004737D01*
X010637Y004775D01*
X010488Y004775D01*
X010472Y004813D01*
X010329Y004957D01*
X010142Y005034D01*
X009939Y005034D01*
X009751Y004957D01*
X009608Y004813D01*
X009549Y004671D01*
X009549Y004732D01*
X009248Y005029D01*
X008885Y005026D01*
X008266Y005644D01*
X008266Y005715D01*
X008476Y005925D01*
X008476Y006306D01*
X008207Y006575D01*
X007826Y006575D01*
X007557Y006306D01*
X007557Y005925D01*
X007767Y005715D01*
X007767Y005591D01*
X007767Y005491D01*
X007805Y005399D01*
X008529Y004675D01*
X008532Y004302D01*
X008832Y004006D01*
X009255Y004009D01*
X009552Y004310D01*
X009551Y004372D01*
X009608Y004235D01*
X009751Y004092D01*
X009939Y004014D01*
X010142Y004014D01*
X010329Y004092D01*
X010472Y004235D01*
X010487Y004271D01*
X010643Y004116D01*
X010734Y004078D01*
X010834Y004078D01*
X011793Y004078D01*
X011585Y003991D01*
X011317Y003724D01*
X011173Y003375D01*
X011173Y002997D01*
X011317Y002648D01*
X011585Y002381D01*
X011934Y002236D01*
X012312Y002236D01*
X012696Y002416D02*
X014128Y002416D01*
X014217Y002574D02*
X012854Y002574D01*
X012963Y002733D02*
X014325Y002733D01*
X014484Y002891D02*
X013029Y002891D01*
X013073Y003050D02*
X013825Y003050D01*
X013890Y002985D02*
X013421Y003453D01*
X013421Y003754D01*
X014191Y003754D01*
X014251Y003754D01*
X014251Y002985D01*
X014553Y002985D01*
X015021Y003453D01*
X015021Y003754D01*
X014251Y003754D01*
X014251Y003815D01*
X014191Y003815D01*
X014191Y004585D01*
X013890Y004585D01*
X013421Y004116D01*
X013421Y003815D01*
X014191Y003815D01*
X014191Y003754D01*
X014191Y002985D01*
X013890Y002985D01*
X014191Y003050D02*
X014251Y003050D01*
X014251Y003208D02*
X014191Y003208D01*
X014191Y003367D02*
X014251Y003367D01*
X014251Y003526D02*
X014191Y003526D01*
X014191Y003684D02*
X014251Y003684D01*
X014251Y003815D02*
X015021Y003815D01*
X015021Y004116D01*
X014553Y004585D01*
X014251Y004585D01*
X014251Y003815D01*
X014251Y003843D02*
X014191Y003843D01*
X014191Y004001D02*
X014251Y004001D01*
X014251Y004160D02*
X014191Y004160D01*
X014191Y004318D02*
X014251Y004318D01*
X014251Y004477D02*
X014191Y004477D01*
X014177Y004588D02*
X014008Y004658D01*
X013879Y004788D01*
X013809Y004957D01*
X013809Y005660D01*
X013879Y005829D01*
X014008Y005958D01*
X014019Y005962D01*
X014019Y006173D01*
X013200Y006991D01*
X011425Y006991D01*
X011176Y006742D01*
X010794Y006742D01*
X010525Y007011D01*
X010525Y007392D01*
X010794Y007662D01*
X011176Y007662D01*
X011346Y007491D01*
X013354Y007491D01*
X013446Y007453D01*
X013516Y007383D01*
X014480Y006418D01*
X014518Y006326D01*
X014518Y006227D01*
X014518Y005962D01*
X014529Y005958D01*
X014658Y005829D01*
X014728Y005660D01*
X014728Y004957D01*
X014658Y004788D01*
X014529Y004658D01*
X014360Y004588D01*
X014177Y004588D01*
X014063Y004635D02*
X013502Y004635D01*
X013373Y004477D02*
X013782Y004477D01*
X013624Y004318D02*
X013215Y004318D01*
X013056Y004160D02*
X013465Y004160D01*
X013421Y004001D02*
X012638Y004001D01*
X012810Y003843D02*
X013421Y003843D01*
X013421Y003684D02*
X012945Y003684D01*
X013011Y003526D02*
X013421Y003526D01*
X013507Y003367D02*
X013073Y003367D01*
X013073Y003208D02*
X013666Y003208D01*
X014618Y003050D02*
X014743Y003050D01*
X014776Y003208D02*
X015638Y003208D01*
X015724Y003050D02*
X015796Y003050D01*
X015882Y002965D02*
X016561Y002965D01*
X017041Y003445D01*
X017041Y004124D01*
X017030Y004135D01*
X017073Y004117D01*
X017173Y004117D01*
X019220Y004117D01*
X019312Y004155D01*
X019382Y004226D01*
X019654Y004497D01*
X019692Y004589D01*
X019692Y004689D01*
X019692Y007864D01*
X019902Y008074D01*
X019902Y008440D01*
X021316Y007025D01*
X021408Y006987D01*
X021507Y006987D01*
X023537Y006987D01*
X023537Y006784D01*
X023654Y006667D01*
X024560Y006667D01*
X024677Y006784D01*
X024677Y007690D01*
X024560Y007807D01*
X023654Y007807D01*
X023537Y007690D01*
X023537Y007487D01*
X021561Y007487D01*
X020252Y008796D01*
X020324Y008766D01*
X020535Y008766D01*
X020730Y008847D01*
X020879Y008996D01*
X020960Y009191D01*
X020960Y009402D01*
X020879Y009597D01*
X020730Y009746D01*
X020668Y009772D01*
X020859Y009772D01*
X021052Y009851D01*
X021200Y009999D01*
X021279Y010192D01*
X021279Y010401D01*
X021200Y010594D01*
X021052Y010741D01*
X020919Y010796D01*
X021052Y010851D01*
X021200Y010999D01*
X021279Y011192D01*
X021279Y011401D01*
X021200Y011594D01*
X021052Y011741D01*
X020919Y011796D01*
X021052Y011851D01*
X021200Y011999D01*
X021279Y012192D01*
X021279Y012401D01*
X021200Y012594D01*
X021052Y012741D01*
X020859Y012821D01*
X020668Y012821D01*
X020730Y012847D01*
X020879Y012996D01*
X020960Y013191D01*
X020960Y013402D01*
X020879Y013597D01*
X020730Y013746D01*
X020535Y013826D01*
X020324Y013826D01*
X020130Y013746D01*
X019981Y013597D01*
X019900Y013402D01*
X019900Y013191D01*
X019981Y012996D01*
X020130Y012847D01*
X020192Y012821D01*
X020001Y012821D01*
X019808Y012741D01*
X019660Y012594D01*
X019580Y012401D01*
X019580Y012192D01*
X019660Y011999D01*
X019808Y011851D01*
X019941Y011796D01*
X019808Y011741D01*
X019660Y011594D01*
X019580Y011401D01*
X019580Y011192D01*
X019660Y010999D01*
X019808Y010851D01*
X019941Y010796D01*
X019808Y010741D01*
X019660Y010594D01*
X019580Y010401D01*
X019580Y010192D01*
X019660Y009999D01*
X019808Y009851D01*
X020001Y009772D01*
X020192Y009772D01*
X020130Y009746D01*
X019981Y009597D01*
X019900Y009402D01*
X019900Y009191D01*
X019930Y009118D01*
X019421Y009627D01*
X019351Y009697D01*
X019259Y009735D01*
X018664Y009735D01*
X018403Y009996D01*
X017976Y009996D01*
X017675Y009695D01*
X017675Y009268D01*
X017976Y008966D01*
X018028Y008966D01*
X018008Y008958D01*
X017879Y008829D01*
X017809Y008660D01*
X017809Y007957D01*
X017879Y007788D01*
X018008Y007658D01*
X018177Y007588D01*
X018360Y007588D01*
X018529Y007658D01*
X018658Y007788D01*
X018728Y007957D01*
X018728Y008660D01*
X018658Y008829D01*
X018529Y008958D01*
X018434Y008997D01*
X018672Y009235D01*
X019106Y009235D01*
X019616Y008725D01*
X019251Y008725D01*
X018982Y008455D01*
X018982Y008074D01*
X019192Y007864D01*
X019192Y004742D01*
X019067Y004617D01*
X018430Y004617D01*
X018529Y004658D01*
X018658Y004788D01*
X018728Y004957D01*
X018728Y005660D01*
X018658Y005829D01*
X018529Y005958D01*
X018515Y005964D01*
X018515Y006464D01*
X018476Y006556D01*
X018406Y006626D01*
X017973Y007059D01*
X017881Y007098D01*
X017782Y007098D01*
X015966Y007098D01*
X015555Y007509D01*
X015555Y007685D01*
X015658Y007788D01*
X015728Y007957D01*
X015728Y008660D01*
X015700Y008729D01*
X015837Y008729D01*
X015809Y008660D01*
X015809Y007957D01*
X015879Y007788D01*
X016008Y007658D01*
X016177Y007588D01*
X016360Y007588D01*
X016529Y007658D01*
X016658Y007788D01*
X016728Y007957D01*
X016728Y008403D01*
X016809Y008323D01*
X016809Y007957D01*
X016879Y007788D01*
X017008Y007658D01*
X017177Y007588D01*
X017360Y007588D01*
X017529Y007658D01*
X017658Y007788D01*
X017728Y007957D01*
X017728Y008660D01*
X017658Y008829D01*
X017529Y008958D01*
X017360Y009028D01*
X017177Y009028D01*
X017008Y008958D01*
X016944Y008894D01*
X016717Y009121D01*
X016647Y009191D01*
X016613Y009205D01*
X016685Y009276D01*
X016685Y009481D01*
X016190Y009481D01*
X016190Y009482D01*
X016190Y009482D01*
X016190Y009976D01*
X016395Y009976D01*
X016685Y009686D01*
X016685Y009482D01*
X016190Y009482D01*
X016190Y009976D01*
X015985Y009976D01*
X015695Y009686D01*
X015695Y009482D01*
X016189Y009482D01*
X016189Y009481D01*
X015695Y009481D01*
X015695Y009276D01*
X015742Y009229D01*
X014909Y009229D01*
X014783Y009355D01*
X014783Y009695D01*
X014482Y009996D01*
X014055Y009996D01*
X013754Y009695D01*
X013754Y009271D01*
X013593Y009431D01*
X013593Y010617D01*
X013593Y010716D01*
X013555Y010808D01*
X012925Y011438D01*
X012855Y011508D01*
X012763Y011546D01*
X010786Y011546D01*
X010767Y011594D01*
X010619Y011741D01*
X010486Y011796D01*
X010619Y011851D01*
X010767Y011999D01*
X010846Y012192D01*
X010846Y012401D01*
X010767Y012594D01*
X010619Y012741D01*
X010426Y012821D01*
X010234Y012821D01*
X010297Y012847D01*
X010446Y012996D01*
X010527Y013191D01*
X010527Y013402D01*
X010446Y013597D01*
X010297Y013746D01*
X010102Y013826D01*
X009891Y013826D01*
X009697Y013746D01*
X009548Y013597D01*
X009467Y013402D01*
X009467Y013191D01*
X009548Y012996D01*
X009697Y012847D01*
X009759Y012821D01*
X009568Y012821D01*
X009375Y012741D01*
X009227Y012594D01*
X009147Y012401D01*
X009147Y012192D01*
X009227Y011999D01*
X009375Y011851D01*
X009508Y011796D01*
X009375Y011741D01*
X009227Y011594D01*
X009147Y011401D01*
X009147Y011192D01*
X009227Y010999D01*
X009375Y010851D01*
X009508Y010796D01*
X009375Y010741D01*
X009227Y010594D01*
X009147Y010401D01*
X009147Y010192D01*
X009227Y009999D01*
X009375Y009851D01*
X009568Y009772D01*
X009759Y009772D01*
X009697Y009746D01*
X009548Y009597D01*
X009467Y009402D01*
X009467Y009191D01*
X009548Y008996D01*
X009697Y008847D01*
X009891Y008766D01*
X010102Y008766D01*
X010297Y008847D01*
X010446Y008996D01*
X010527Y009191D01*
X010527Y009402D01*
X010446Y009597D01*
X010297Y009746D01*
X010234Y009772D01*
X010426Y009772D01*
X010619Y009851D01*
X010767Y009999D01*
X010846Y010192D01*
X010846Y010401D01*
X010767Y010594D01*
X010619Y010741D01*
X010486Y010796D01*
X010619Y010851D01*
X010767Y010999D01*
X010786Y011046D01*
X011466Y011046D01*
X011312Y010892D01*
X011312Y010511D01*
X011345Y010479D01*
X011194Y010327D01*
X011124Y010257D01*
X011085Y010165D01*
X011085Y009628D01*
X010130Y008672D01*
X009223Y008672D01*
X009223Y009771D01*
X009185Y009863D01*
X009115Y009933D01*
X008646Y010402D01*
X008554Y010440D01*
X008455Y010440D01*
X007083Y010440D01*
X007083Y010643D01*
X006965Y010760D01*
X006060Y010760D01*
X005943Y010643D01*
X005943Y009737D01*
X006060Y009620D01*
X006965Y009620D01*
X007083Y009737D01*
X007083Y009940D01*
X008401Y009940D01*
X008723Y009618D01*
X008723Y008393D01*
X008723Y007055D01*
X008723Y006955D01*
X008761Y006863D01*
X009627Y005997D01*
X009698Y005927D01*
X009790Y005889D01*
X010592Y005889D01*
X010826Y005655D01*
X011207Y005655D01*
X011476Y005925D01*
X011476Y006306D01*
X011207Y006575D01*
X010826Y006575D01*
X010640Y006389D01*
X009943Y006389D01*
X009223Y007109D01*
X009223Y008172D01*
X010283Y008172D01*
X010375Y008210D01*
X010445Y008281D01*
X010549Y008384D01*
X010549Y008066D01*
X010818Y007797D01*
X011199Y007797D01*
X011469Y008066D01*
X011469Y008448D01*
X011199Y008717D01*
X010881Y008717D01*
X011547Y009383D01*
X011585Y009475D01*
X011585Y009574D01*
X011585Y010012D01*
X011816Y010242D01*
X011963Y010242D01*
X012232Y010511D01*
X012232Y010892D01*
X012078Y011046D01*
X012610Y011046D01*
X013093Y010563D01*
X013093Y009278D01*
X013131Y009186D01*
X013202Y009116D01*
X013290Y009028D01*
X013177Y009028D01*
X013008Y008958D01*
X012879Y008829D01*
X012809Y008660D01*
X012809Y007957D01*
X012879Y007788D01*
X013008Y007658D01*
X013177Y007588D01*
X013360Y007588D01*
X013529Y007658D01*
X013566Y007695D01*
X013566Y007625D01*
X013604Y007533D01*
X013674Y007462D01*
X015129Y006008D01*
X015008Y005958D01*
X014879Y005829D01*
X014809Y005660D01*
X014809Y004957D01*
X014879Y004788D01*
X015008Y004658D01*
X015177Y004588D01*
X015360Y004588D01*
X015529Y004658D01*
X015658Y004788D01*
X015728Y004957D01*
X015728Y005660D01*
X015658Y005829D01*
X015529Y005958D01*
X015506Y005968D01*
X016031Y005968D01*
X016008Y005958D01*
X015879Y005829D01*
X015809Y005660D01*
X015809Y004957D01*
X015879Y004788D01*
X016008Y004658D01*
X016138Y004605D01*
X015882Y004605D01*
X015401Y004124D01*
X015401Y003445D01*
X015882Y002965D01*
X015982Y002891D02*
X017342Y002891D01*
X017315Y002958D02*
X017459Y002609D01*
X017726Y002341D01*
X018076Y002197D01*
X018454Y002197D01*
X018803Y002341D01*
X019070Y002609D01*
X019215Y002958D01*
X019215Y003336D01*
X019070Y003685D01*
X018803Y003952D01*
X018454Y004097D01*
X018076Y004097D01*
X017726Y003952D01*
X017459Y003685D01*
X017315Y003336D01*
X017315Y002958D01*
X017315Y003050D02*
X016646Y003050D01*
X016805Y003208D02*
X017315Y003208D01*
X017328Y003367D02*
X016963Y003367D01*
X017041Y003526D02*
X017393Y003526D01*
X017459Y003684D02*
X017041Y003684D01*
X017041Y003843D02*
X017617Y003843D01*
X017845Y004001D02*
X017041Y004001D01*
X016063Y004635D02*
X015474Y004635D01*
X015661Y004794D02*
X015876Y004794D01*
X015810Y004952D02*
X015727Y004952D01*
X015728Y005111D02*
X015809Y005111D01*
X015809Y005270D02*
X015728Y005270D01*
X015728Y005428D02*
X015809Y005428D01*
X015809Y005587D02*
X015728Y005587D01*
X015693Y005745D02*
X015844Y005745D01*
X015954Y005904D02*
X015583Y005904D01*
X015074Y006062D02*
X014518Y006062D01*
X014518Y006221D02*
X014916Y006221D01*
X014757Y006379D02*
X014497Y006379D01*
X014599Y006538D02*
X014361Y006538D01*
X014440Y006696D02*
X014202Y006696D01*
X014282Y006855D02*
X014044Y006855D01*
X014123Y007014D02*
X013885Y007014D01*
X013964Y007172D02*
X013727Y007172D01*
X013806Y007331D02*
X013568Y007331D01*
X013647Y007489D02*
X013359Y007489D01*
X013504Y007648D02*
X013566Y007648D01*
X013033Y007648D02*
X012452Y007648D01*
X012437Y007640D02*
X012499Y007672D01*
X012555Y007713D01*
X012604Y007762D01*
X012645Y007818D01*
X012676Y007879D01*
X012698Y007945D01*
X012708Y008014D01*
X012708Y008308D01*
X012269Y008308D01*
X012269Y008308D01*
X012708Y008308D01*
X012708Y008603D01*
X012698Y008671D01*
X012676Y008737D01*
X012645Y008799D01*
X012604Y008855D01*
X012555Y008904D01*
X012499Y008944D01*
X012437Y008976D01*
X012405Y008986D01*
X012474Y008986D01*
X012763Y009276D01*
X012763Y009481D01*
X012269Y009481D01*
X012269Y009482D01*
X012268Y009482D01*
X012268Y009976D01*
X012063Y009976D01*
X011774Y009686D01*
X011774Y009482D01*
X012268Y009482D01*
X012268Y009481D01*
X011774Y009481D01*
X011774Y009276D01*
X012063Y008986D01*
X012132Y008986D01*
X012100Y008976D01*
X012038Y008944D01*
X011982Y008904D01*
X011933Y008855D01*
X011892Y008799D01*
X011861Y008737D01*
X011839Y008671D01*
X011829Y008603D01*
X011829Y008308D01*
X011829Y008014D01*
X011839Y007945D01*
X011861Y007879D01*
X011892Y007818D01*
X011933Y007762D01*
X011982Y007713D01*
X012038Y007672D01*
X012100Y007640D01*
X012165Y007619D01*
X012234Y007608D01*
X012268Y007608D01*
X012268Y008308D01*
X011829Y008308D01*
X012268Y008308D01*
X012268Y008308D01*
X012269Y008308D01*
X012269Y007608D01*
X012303Y007608D01*
X012372Y007619D01*
X012437Y007640D01*
X012269Y007648D02*
X012268Y007648D01*
X012268Y007806D02*
X012269Y007806D01*
X012268Y007965D02*
X012269Y007965D01*
X012268Y008123D02*
X012269Y008123D01*
X012268Y008282D02*
X012269Y008282D01*
X012268Y008309D02*
X012268Y009008D01*
X012268Y009481D01*
X012269Y009481D01*
X012269Y009008D01*
X012269Y008309D01*
X012268Y008309D01*
X012268Y008440D02*
X012269Y008440D01*
X012268Y008599D02*
X012269Y008599D01*
X012268Y008757D02*
X012269Y008757D01*
X012268Y008916D02*
X012269Y008916D01*
X012268Y009075D02*
X012269Y009075D01*
X012268Y009233D02*
X012269Y009233D01*
X012268Y009392D02*
X012269Y009392D01*
X012269Y009482D02*
X012763Y009482D01*
X012763Y009686D01*
X012474Y009976D01*
X012269Y009976D01*
X012269Y009482D01*
X012268Y009550D02*
X012269Y009550D01*
X012268Y009709D02*
X012269Y009709D01*
X012268Y009867D02*
X012269Y009867D01*
X012583Y009867D02*
X013093Y009867D01*
X013093Y009709D02*
X012741Y009709D01*
X012763Y009550D02*
X013093Y009550D01*
X013093Y009392D02*
X012763Y009392D01*
X012720Y009233D02*
X013112Y009233D01*
X013243Y009075D02*
X012562Y009075D01*
X012538Y008916D02*
X012966Y008916D01*
X012849Y008757D02*
X012666Y008757D01*
X012708Y008599D02*
X012809Y008599D01*
X012809Y008440D02*
X012708Y008440D01*
X012708Y008282D02*
X012809Y008282D01*
X012809Y008123D02*
X012708Y008123D01*
X012701Y007965D02*
X012809Y007965D01*
X012871Y007806D02*
X012637Y007806D01*
X012085Y007648D02*
X011190Y007648D01*
X011208Y007806D02*
X011900Y007806D01*
X011836Y007965D02*
X011367Y007965D01*
X011469Y008123D02*
X011829Y008123D01*
X011829Y008282D02*
X011469Y008282D01*
X011469Y008440D02*
X011829Y008440D01*
X011829Y008599D02*
X011317Y008599D01*
X010922Y008757D02*
X011871Y008757D01*
X011999Y008916D02*
X011080Y008916D01*
X011239Y009075D02*
X011975Y009075D01*
X011817Y009233D02*
X011397Y009233D01*
X011551Y009392D02*
X011774Y009392D01*
X011774Y009550D02*
X011585Y009550D01*
X011585Y009709D02*
X011796Y009709D01*
X011954Y009867D02*
X011585Y009867D01*
X011599Y010026D02*
X013093Y010026D01*
X013093Y010184D02*
X011758Y010184D01*
X012064Y010343D02*
X013093Y010343D01*
X013093Y010501D02*
X012223Y010501D01*
X012232Y010660D02*
X012996Y010660D01*
X012838Y010819D02*
X012232Y010819D01*
X012148Y010977D02*
X012679Y010977D01*
X013069Y011294D02*
X019580Y011294D01*
X019604Y011136D02*
X018938Y011136D01*
X018876Y011197D02*
X018495Y011197D01*
X018226Y010928D01*
X018226Y010547D01*
X018495Y010277D01*
X018876Y010277D01*
X019146Y010547D01*
X019146Y010928D01*
X018876Y011197D01*
X019097Y010977D02*
X019682Y010977D01*
X019887Y010819D02*
X019146Y010819D01*
X019146Y010660D02*
X019727Y010660D01*
X019622Y010501D02*
X019100Y010501D01*
X018942Y010343D02*
X019580Y010343D01*
X019583Y010184D02*
X013593Y010184D01*
X013593Y010026D02*
X019649Y010026D01*
X019792Y009867D02*
X018532Y009867D01*
X017847Y009867D02*
X016504Y009867D01*
X016662Y009709D02*
X017689Y009709D01*
X017675Y009550D02*
X016685Y009550D01*
X016685Y009392D02*
X017675Y009392D01*
X017710Y009233D02*
X016641Y009233D01*
X016763Y009075D02*
X017868Y009075D01*
X017966Y008916D02*
X017571Y008916D01*
X017688Y008757D02*
X017849Y008757D01*
X017809Y008599D02*
X017728Y008599D01*
X017728Y008440D02*
X017809Y008440D01*
X017809Y008282D02*
X017728Y008282D01*
X017728Y008123D02*
X017809Y008123D01*
X017809Y007965D02*
X017728Y007965D01*
X017666Y007806D02*
X017871Y007806D01*
X018033Y007648D02*
X017504Y007648D01*
X017033Y007648D02*
X016504Y007648D01*
X016666Y007806D02*
X016871Y007806D01*
X016809Y007965D02*
X016728Y007965D01*
X016728Y008123D02*
X016809Y008123D01*
X016809Y008282D02*
X016728Y008282D01*
X015809Y008282D02*
X015728Y008282D01*
X015728Y008440D02*
X015809Y008440D01*
X015809Y008599D02*
X015728Y008599D01*
X015728Y008123D02*
X015809Y008123D01*
X015809Y007965D02*
X015728Y007965D01*
X015666Y007806D02*
X015871Y007806D01*
X016033Y007648D02*
X015555Y007648D01*
X015575Y007489D02*
X019192Y007489D01*
X019192Y007331D02*
X015733Y007331D01*
X015892Y007172D02*
X019192Y007172D01*
X019192Y007014D02*
X018019Y007014D01*
X018178Y006855D02*
X019192Y006855D01*
X019192Y006696D02*
X018336Y006696D01*
X018484Y006538D02*
X019192Y006538D01*
X019192Y006379D02*
X018515Y006379D01*
X018515Y006221D02*
X019192Y006221D01*
X019192Y006062D02*
X018515Y006062D01*
X018583Y005904D02*
X019192Y005904D01*
X019192Y005745D02*
X018693Y005745D01*
X018728Y005587D02*
X019192Y005587D01*
X019192Y005428D02*
X018728Y005428D01*
X018728Y005270D02*
X019192Y005270D01*
X019192Y005111D02*
X018728Y005111D01*
X018727Y004952D02*
X019192Y004952D01*
X019192Y004794D02*
X018661Y004794D01*
X018474Y004635D02*
X019085Y004635D01*
X019475Y004318D02*
X029043Y004318D01*
X029043Y004160D02*
X028607Y004160D01*
X028765Y004001D02*
X029043Y004001D01*
X029043Y003843D02*
X028924Y003843D01*
X029043Y004477D02*
X019633Y004477D01*
X019692Y004635D02*
X029043Y004635D01*
X029043Y004794D02*
X019692Y004794D01*
X019692Y004952D02*
X029043Y004952D01*
X029043Y005111D02*
X019692Y005111D01*
X019692Y005270D02*
X029043Y005270D01*
X029043Y005428D02*
X019692Y005428D01*
X019692Y005587D02*
X029043Y005587D01*
X029043Y005745D02*
X019692Y005745D01*
X019692Y005904D02*
X029043Y005904D01*
X029043Y006062D02*
X019692Y006062D01*
X019692Y006221D02*
X029043Y006221D01*
X029043Y006379D02*
X019692Y006379D01*
X019692Y006538D02*
X029043Y006538D01*
X029043Y006696D02*
X027739Y006696D01*
X027710Y006667D02*
X027827Y006784D01*
X027827Y007690D01*
X027710Y007807D01*
X026804Y007807D01*
X026687Y007690D01*
X026687Y007487D01*
X026252Y007487D01*
X026252Y007690D01*
X026135Y007807D01*
X025431Y007807D01*
X024847Y008391D01*
X024755Y008429D01*
X024656Y008429D01*
X022902Y008429D01*
X022902Y008455D01*
X022632Y008725D01*
X022251Y008725D01*
X021982Y008455D01*
X021982Y008074D01*
X022251Y007805D01*
X022632Y007805D01*
X022756Y007929D01*
X024602Y007929D01*
X025112Y007419D01*
X025112Y006784D01*
X025229Y006667D01*
X026135Y006667D01*
X026252Y006784D01*
X026252Y006987D01*
X026687Y006987D01*
X026687Y006784D01*
X026804Y006667D01*
X027710Y006667D01*
X027827Y006855D02*
X029043Y006855D01*
X029041Y007014D02*
X027827Y007014D01*
X027827Y007172D02*
X029050Y007172D01*
X029116Y007331D02*
X027827Y007331D01*
X027827Y007489D02*
X028221Y007489D01*
X027894Y007648D02*
X027827Y007648D01*
X027718Y007806D02*
X027711Y007806D01*
X027590Y007965D02*
X025273Y007965D01*
X025115Y008123D02*
X027498Y008123D01*
X027444Y008282D02*
X024956Y008282D01*
X024725Y007806D02*
X024561Y007806D01*
X024677Y007648D02*
X024883Y007648D01*
X025042Y007489D02*
X024677Y007489D01*
X024677Y007331D02*
X025112Y007331D01*
X025112Y007172D02*
X024677Y007172D01*
X024677Y007014D02*
X025112Y007014D01*
X025112Y006855D02*
X024677Y006855D01*
X024589Y006696D02*
X025200Y006696D01*
X026164Y006696D02*
X026775Y006696D01*
X026687Y006855D02*
X026252Y006855D01*
X026252Y007489D02*
X026687Y007489D01*
X026687Y007648D02*
X026252Y007648D01*
X026136Y007806D02*
X026803Y007806D01*
X027401Y008440D02*
X022902Y008440D01*
X022758Y008599D02*
X027395Y008599D01*
X027395Y008757D02*
X020291Y008757D01*
X020449Y008599D02*
X022125Y008599D01*
X021982Y008440D02*
X020608Y008440D01*
X020766Y008282D02*
X021982Y008282D01*
X021982Y008123D02*
X020925Y008123D01*
X021084Y007965D02*
X022091Y007965D01*
X022250Y007806D02*
X021242Y007806D01*
X021401Y007648D02*
X023537Y007648D01*
X023537Y007489D02*
X021559Y007489D01*
X021169Y007172D02*
X019692Y007172D01*
X019692Y007014D02*
X021345Y007014D01*
X021011Y007331D02*
X019692Y007331D01*
X019692Y007489D02*
X020852Y007489D01*
X020694Y007648D02*
X019692Y007648D01*
X019692Y007806D02*
X020535Y007806D01*
X020376Y007965D02*
X019792Y007965D01*
X019902Y008123D02*
X020218Y008123D01*
X020059Y008282D02*
X019902Y008282D01*
X019125Y008599D02*
X018728Y008599D01*
X018728Y008440D02*
X018982Y008440D01*
X018982Y008282D02*
X018728Y008282D01*
X018728Y008123D02*
X018982Y008123D01*
X019091Y007965D02*
X018728Y007965D01*
X018666Y007806D02*
X019192Y007806D01*
X019192Y007648D02*
X018504Y007648D01*
X019692Y006855D02*
X023537Y006855D01*
X023625Y006696D02*
X019692Y006696D01*
X022634Y007806D02*
X023653Y007806D01*
X024317Y009461D02*
X024571Y009356D01*
X024847Y009356D01*
X025101Y009461D01*
X025296Y009656D01*
X025401Y009910D01*
X025401Y010186D01*
X025296Y010440D01*
X025101Y010635D01*
X024847Y010740D01*
X024571Y010740D01*
X024317Y010635D01*
X024122Y010440D01*
X024017Y010186D01*
X024017Y009910D01*
X024122Y009656D01*
X024317Y009461D01*
X024228Y009550D02*
X020898Y009550D01*
X020960Y009392D02*
X024485Y009392D01*
X024100Y009709D02*
X020767Y009709D01*
X021068Y009867D02*
X024035Y009867D01*
X024017Y010026D02*
X021211Y010026D01*
X021276Y010184D02*
X024017Y010184D01*
X024082Y010343D02*
X021279Y010343D01*
X021238Y010501D02*
X024184Y010501D01*
X024378Y010660D02*
X021133Y010660D01*
X020972Y010819D02*
X029043Y010819D01*
X029043Y010977D02*
X021178Y010977D01*
X021256Y011136D02*
X029043Y011136D01*
X029043Y011294D02*
X021279Y011294D01*
X021258Y011453D02*
X029043Y011453D01*
X029043Y011611D02*
X021182Y011611D01*
X020983Y011770D02*
X029043Y011770D01*
X029043Y011928D02*
X021129Y011928D01*
X021236Y012087D02*
X029043Y012087D01*
X029043Y012245D02*
X021279Y012245D01*
X021278Y012404D02*
X029043Y012404D01*
X029043Y012563D02*
X021213Y012563D01*
X021072Y012721D02*
X029043Y012721D01*
X029043Y012880D02*
X020763Y012880D01*
X020897Y013038D02*
X029043Y013038D01*
X029043Y013197D02*
X020960Y013197D01*
X020960Y013355D02*
X029043Y013355D01*
X029043Y013514D02*
X020914Y013514D01*
X020803Y013672D02*
X029043Y013672D01*
X029043Y013831D02*
X008329Y013831D01*
X008329Y013734D02*
X007772Y013177D01*
X006985Y013177D01*
X006429Y013734D01*
X006429Y014521D01*
X006985Y015077D01*
X007772Y015077D01*
X008329Y014521D01*
X008329Y013734D01*
X008267Y013672D02*
X009623Y013672D01*
X009513Y013514D02*
X008109Y013514D01*
X007950Y013355D02*
X009467Y013355D01*
X009467Y013197D02*
X007792Y013197D01*
X006966Y013197D02*
X002910Y013197D01*
X003068Y013355D02*
X006807Y013355D01*
X006649Y013514D02*
X003227Y013514D01*
X003386Y013672D02*
X006490Y013672D01*
X006429Y013831D02*
X003447Y013831D01*
X003447Y013989D02*
X006429Y013989D01*
X006429Y014148D02*
X003447Y014148D01*
X003447Y014306D02*
X006429Y014306D01*
X006429Y014465D02*
X003447Y014465D01*
X003344Y014624D02*
X006532Y014624D01*
X006690Y014782D02*
X003185Y014782D01*
X003027Y014941D02*
X006849Y014941D01*
X007909Y014941D02*
X009081Y014941D01*
X009080Y015099D02*
X001679Y015099D01*
X001660Y014941D02*
X001967Y014941D01*
X001808Y014782D02*
X001659Y014782D01*
X001752Y015258D02*
X009194Y015258D01*
X009080Y015142D02*
X009083Y014761D01*
X009354Y014493D01*
X009735Y014496D01*
X010002Y014767D01*
X010000Y015148D01*
X009729Y015416D01*
X009347Y015413D01*
X009080Y015142D01*
X009082Y014782D02*
X008067Y014782D01*
X008226Y014624D02*
X009221Y014624D01*
X009861Y014624D02*
X010218Y014624D01*
X010344Y014500D02*
X010073Y014767D01*
X010070Y015149D01*
X010337Y015420D01*
X010718Y015422D01*
X010990Y015155D01*
X010992Y014774D01*
X010725Y014503D01*
X010344Y014500D01*
X010072Y014782D02*
X010002Y014782D01*
X010001Y014941D02*
X010071Y014941D01*
X010070Y015099D02*
X010000Y015099D01*
X009889Y015258D02*
X010178Y015258D01*
X010334Y015416D02*
X001941Y015416D01*
X001767Y013514D02*
X001659Y013514D01*
X001659Y013355D02*
X001925Y013355D01*
X002084Y013197D02*
X001659Y013197D01*
X001659Y013038D02*
X009530Y013038D01*
X009664Y012880D02*
X001659Y012880D01*
X001659Y012721D02*
X009355Y012721D01*
X009214Y012563D02*
X001659Y012563D01*
X001659Y012404D02*
X009149Y012404D01*
X009147Y012245D02*
X001659Y012245D01*
X001659Y012087D02*
X009191Y012087D01*
X009298Y011928D02*
X001659Y011928D01*
X001659Y011770D02*
X009444Y011770D01*
X009245Y011611D02*
X001659Y011611D01*
X001659Y011453D02*
X009169Y011453D01*
X009147Y011294D02*
X001659Y011294D01*
X001659Y011136D02*
X009171Y011136D01*
X009249Y010977D02*
X001659Y010977D01*
X001659Y010819D02*
X009454Y010819D01*
X009294Y010660D02*
X007065Y010660D01*
X007083Y010501D02*
X009189Y010501D01*
X009147Y010343D02*
X008705Y010343D01*
X008864Y010184D02*
X009150Y010184D01*
X009216Y010026D02*
X009022Y010026D01*
X009181Y009867D02*
X009359Y009867D01*
X009223Y009709D02*
X009660Y009709D01*
X009528Y009550D02*
X009223Y009550D01*
X009223Y009392D02*
X009467Y009392D01*
X009467Y009233D02*
X009223Y009233D01*
X009223Y009075D02*
X009515Y009075D01*
X009628Y008916D02*
X009223Y008916D01*
X009223Y008757D02*
X010215Y008757D01*
X010366Y008916D02*
X010373Y008916D01*
X010479Y009075D02*
X010532Y009075D01*
X010527Y009233D02*
X010690Y009233D01*
X010849Y009392D02*
X010527Y009392D01*
X010465Y009550D02*
X011007Y009550D01*
X011085Y009709D02*
X010334Y009709D01*
X010635Y009867D02*
X011085Y009867D01*
X011085Y010026D02*
X010778Y010026D01*
X010843Y010184D02*
X011093Y010184D01*
X011210Y010343D02*
X010846Y010343D01*
X010805Y010501D02*
X011322Y010501D01*
X011312Y010660D02*
X010700Y010660D01*
X010539Y010819D02*
X011312Y010819D01*
X011397Y010977D02*
X010745Y010977D01*
X010749Y011611D02*
X019678Y011611D01*
X019602Y011453D02*
X012911Y011453D01*
X013228Y011136D02*
X014584Y011136D01*
X014590Y011142D02*
X014332Y010884D01*
X014332Y010702D01*
X014772Y010702D01*
X014772Y010702D01*
X014772Y011142D01*
X014590Y011142D01*
X014772Y011136D02*
X014773Y011136D01*
X014773Y011142D02*
X014955Y011142D01*
X015212Y010884D01*
X015212Y010702D01*
X014773Y010702D01*
X014773Y010702D01*
X015212Y010702D01*
X015212Y010520D01*
X014955Y010262D01*
X014773Y010262D01*
X014773Y010701D01*
X014772Y010701D01*
X014772Y010262D01*
X014590Y010262D01*
X014332Y010520D01*
X014332Y010702D01*
X014772Y010702D01*
X014773Y010702D01*
X014773Y011142D01*
X014772Y010977D02*
X014773Y010977D01*
X014772Y010819D02*
X014773Y010819D01*
X014772Y010660D02*
X014773Y010660D01*
X014772Y010501D02*
X014773Y010501D01*
X014772Y010343D02*
X014773Y010343D01*
X015036Y010343D02*
X015430Y010343D01*
X015495Y010277D02*
X015876Y010277D01*
X016146Y010547D01*
X016146Y010928D01*
X015876Y011197D01*
X015495Y011197D01*
X015226Y010928D01*
X015226Y010547D01*
X015495Y010277D01*
X015271Y010501D02*
X015194Y010501D01*
X015212Y010660D02*
X015226Y010660D01*
X015212Y010819D02*
X015226Y010819D01*
X015275Y010977D02*
X015119Y010977D01*
X014961Y011136D02*
X015434Y011136D01*
X015938Y011136D02*
X018434Y011136D01*
X018275Y010977D02*
X016097Y010977D01*
X016146Y010819D02*
X018226Y010819D01*
X018226Y010660D02*
X016146Y010660D01*
X016100Y010501D02*
X018271Y010501D01*
X018430Y010343D02*
X015942Y010343D01*
X015876Y009867D02*
X014611Y009867D01*
X014769Y009709D02*
X015717Y009709D01*
X015695Y009550D02*
X014783Y009550D01*
X014783Y009392D02*
X015695Y009392D01*
X015738Y009233D02*
X014905Y009233D01*
X013926Y009867D02*
X013593Y009867D01*
X013593Y009709D02*
X013768Y009709D01*
X013754Y009550D02*
X013593Y009550D01*
X013633Y009392D02*
X013754Y009392D01*
X013593Y010343D02*
X014509Y010343D01*
X014351Y010501D02*
X013593Y010501D01*
X013593Y010660D02*
X014332Y010660D01*
X014332Y010819D02*
X013545Y010819D01*
X013386Y010977D02*
X014425Y010977D01*
X014335Y012044D02*
X014084Y012044D01*
X013853Y012140D01*
X013717Y012276D01*
X013582Y012140D01*
X013351Y012044D01*
X013100Y012044D01*
X012868Y012140D01*
X012691Y012317D01*
X012595Y012549D01*
X012595Y012800D01*
X012691Y013031D01*
X012868Y013208D01*
X013100Y013304D01*
X013351Y013304D01*
X013582Y013208D01*
X013717Y013073D01*
X013853Y013208D01*
X014084Y013304D01*
X014335Y013304D01*
X014566Y013208D01*
X014744Y013031D01*
X014839Y012800D01*
X014839Y012549D01*
X014744Y012317D01*
X014566Y012140D01*
X014335Y012044D01*
X014437Y012087D02*
X015950Y012087D01*
X016053Y012044D02*
X016303Y012044D01*
X016535Y012140D01*
X016670Y012276D01*
X016805Y012140D01*
X017037Y012044D01*
X017288Y012044D01*
X017519Y012140D01*
X017696Y012317D01*
X017792Y012549D01*
X017792Y012800D01*
X017696Y013031D01*
X017519Y013208D01*
X017288Y013304D01*
X017037Y013304D01*
X016805Y013208D01*
X016670Y013073D01*
X016535Y013208D01*
X016303Y013304D01*
X016053Y013304D01*
X015821Y013208D01*
X015644Y013031D01*
X015548Y012800D01*
X015548Y012549D01*
X015644Y012317D01*
X015821Y012140D01*
X016053Y012044D01*
X016406Y012087D02*
X016934Y012087D01*
X016700Y012245D02*
X016640Y012245D01*
X017390Y012087D02*
X019624Y012087D01*
X019580Y012245D02*
X017624Y012245D01*
X017732Y012404D02*
X019582Y012404D01*
X019647Y012563D02*
X017792Y012563D01*
X017792Y012721D02*
X019788Y012721D01*
X020097Y012880D02*
X017759Y012880D01*
X017689Y013038D02*
X019963Y013038D01*
X019900Y013197D02*
X017531Y013197D01*
X016794Y013197D02*
X016546Y013197D01*
X015809Y013197D02*
X014578Y013197D01*
X014737Y013038D02*
X015651Y013038D01*
X015581Y012880D02*
X014806Y012880D01*
X014839Y012721D02*
X015548Y012721D01*
X015548Y012563D02*
X014839Y012563D01*
X014779Y012404D02*
X015608Y012404D01*
X015716Y012245D02*
X014671Y012245D01*
X013981Y012087D02*
X013453Y012087D01*
X013687Y012245D02*
X013747Y012245D01*
X012997Y012087D02*
X010803Y012087D01*
X010846Y012245D02*
X012763Y012245D01*
X012655Y012404D02*
X010845Y012404D01*
X010779Y012563D02*
X012595Y012563D01*
X012595Y012721D02*
X010639Y012721D01*
X010330Y012880D02*
X012628Y012880D01*
X012698Y013038D02*
X010464Y013038D01*
X010527Y013197D02*
X012857Y013197D01*
X013594Y013197D02*
X013841Y013197D01*
X015051Y014048D02*
X015146Y014033D01*
X015146Y014595D01*
X015242Y014595D01*
X015242Y014691D01*
X015804Y014691D01*
X015789Y014786D01*
X015759Y014877D01*
X015715Y014963D01*
X015659Y015040D01*
X015591Y015108D01*
X015513Y015165D01*
X015428Y015208D01*
X015337Y015238D01*
X015242Y015253D01*
X015242Y014691D01*
X015146Y014691D01*
X015146Y015253D01*
X015051Y015238D01*
X014960Y015208D01*
X014874Y015165D01*
X014796Y015108D01*
X014728Y015040D01*
X014672Y014963D01*
X014628Y014877D01*
X014599Y014786D01*
X014584Y014691D01*
X015145Y014691D01*
X015145Y014595D01*
X014584Y014595D01*
X014599Y014500D01*
X014628Y014409D01*
X014672Y014323D01*
X014728Y014245D01*
X014796Y014178D01*
X014874Y014121D01*
X014960Y014078D01*
X015051Y014048D01*
X015146Y014148D02*
X015242Y014148D01*
X015242Y014033D02*
X015337Y014048D01*
X015428Y014078D01*
X015513Y014121D01*
X015591Y014178D01*
X015659Y014245D01*
X015715Y014323D01*
X015759Y014409D01*
X015789Y014500D01*
X015804Y014595D01*
X015242Y014595D01*
X015242Y014033D01*
X015550Y014148D02*
X029043Y014148D01*
X029043Y014306D02*
X026696Y014306D01*
X026963Y014465D02*
X029043Y014465D01*
X029043Y014624D02*
X027095Y014624D01*
X027160Y014782D02*
X029038Y014782D01*
X029043Y014941D02*
X027181Y014941D01*
X027181Y015099D02*
X029031Y015099D01*
X028955Y015258D02*
X027119Y015258D01*
X027022Y015416D02*
X028762Y015416D01*
X029043Y013989D02*
X008329Y013989D01*
X008329Y014148D02*
X014837Y014148D01*
X014684Y014306D02*
X008329Y014306D01*
X008329Y014465D02*
X014610Y014465D01*
X014598Y014782D02*
X010992Y014782D01*
X010991Y014941D02*
X014661Y014941D01*
X014787Y015099D02*
X010990Y015099D01*
X010886Y015258D02*
X019545Y015258D01*
X019458Y015171D02*
X019458Y014989D01*
X019458Y014807D01*
X019716Y014549D01*
X019898Y014549D01*
X019898Y014989D01*
X019458Y014989D01*
X019898Y014989D01*
X019898Y014989D01*
X019899Y014989D01*
X019899Y014989D01*
X020338Y014989D01*
X020338Y014807D01*
X020081Y014549D01*
X019899Y014549D01*
X019899Y014989D01*
X020338Y014989D01*
X020338Y015171D01*
X020081Y015429D01*
X019899Y015429D01*
X019899Y014990D01*
X019898Y014990D01*
X019898Y015429D01*
X019716Y015429D01*
X019458Y015171D01*
X019458Y015099D02*
X015600Y015099D01*
X015727Y014941D02*
X019458Y014941D01*
X019483Y014782D02*
X015789Y014782D01*
X015777Y014465D02*
X024235Y014465D01*
X024104Y014624D02*
X021183Y014624D01*
X021089Y014529D02*
X021358Y014799D01*
X021358Y015180D01*
X021089Y015449D01*
X020708Y015449D01*
X020438Y015180D01*
X020438Y014799D01*
X020708Y014529D01*
X021089Y014529D01*
X020614Y014624D02*
X020155Y014624D01*
X020313Y014782D02*
X020455Y014782D01*
X020438Y014941D02*
X020338Y014941D01*
X020338Y015099D02*
X020438Y015099D01*
X020516Y015258D02*
X020252Y015258D01*
X020094Y015416D02*
X020675Y015416D01*
X021122Y015416D02*
X024177Y015416D01*
X024079Y015258D02*
X021280Y015258D01*
X021358Y015099D02*
X024017Y015099D01*
X024017Y014941D02*
X021358Y014941D01*
X021342Y014782D02*
X024038Y014782D01*
X024503Y014306D02*
X015703Y014306D01*
X015242Y014306D02*
X015146Y014306D01*
X015146Y014465D02*
X015242Y014465D01*
X015242Y014624D02*
X019642Y014624D01*
X019898Y014624D02*
X019899Y014624D01*
X019898Y014782D02*
X019899Y014782D01*
X019898Y014941D02*
X019899Y014941D01*
X019898Y015099D02*
X019899Y015099D01*
X019898Y015258D02*
X019899Y015258D01*
X019898Y015416D02*
X019899Y015416D01*
X019703Y015416D02*
X010725Y015416D01*
X010844Y014624D02*
X015145Y014624D01*
X015146Y014782D02*
X015242Y014782D01*
X015242Y014941D02*
X015146Y014941D01*
X015146Y015099D02*
X015242Y015099D01*
X019946Y013514D02*
X010480Y013514D01*
X010527Y013355D02*
X019900Y013355D01*
X020056Y013672D02*
X010370Y013672D01*
X010696Y011928D02*
X019731Y011928D01*
X019877Y011770D02*
X010550Y011770D01*
X008474Y009867D02*
X007083Y009867D01*
X007054Y009709D02*
X008633Y009709D01*
X008723Y009550D02*
X002906Y009550D01*
X002924Y009652D02*
X002969Y009640D01*
X003344Y009640D01*
X003344Y010171D01*
X003381Y010171D01*
X003381Y009640D01*
X003757Y009640D01*
X003802Y009652D01*
X003844Y009676D01*
X003877Y009710D01*
X003901Y009751D01*
X003913Y009796D01*
X003913Y010172D01*
X003382Y010172D01*
X003382Y010209D01*
X003913Y010209D01*
X003913Y010584D01*
X003901Y010630D01*
X003877Y010671D01*
X003844Y010704D01*
X003802Y010728D01*
X003757Y010740D01*
X003381Y010740D01*
X003381Y010209D01*
X003344Y010209D01*
X003344Y010740D01*
X002969Y010740D01*
X002924Y010728D01*
X002882Y010704D01*
X002849Y010671D01*
X002825Y010630D01*
X002813Y010584D01*
X002813Y010209D01*
X003344Y010209D01*
X003344Y010172D01*
X002813Y010172D01*
X002813Y009796D01*
X002825Y009751D01*
X002849Y009710D01*
X002882Y009676D01*
X002924Y009652D01*
X002850Y009709D02*
X002701Y009709D01*
X002813Y009867D02*
X002295Y009867D01*
X001872Y009867D02*
X001564Y009867D01*
X001636Y010026D02*
X002813Y010026D01*
X003344Y010026D02*
X003381Y010026D01*
X003382Y010184D02*
X004368Y010184D01*
X004368Y010026D02*
X003913Y010026D01*
X003913Y009867D02*
X004368Y009867D01*
X004368Y009737D02*
X004485Y009620D01*
X005391Y009620D01*
X005508Y009737D01*
X005508Y010643D01*
X005391Y010760D01*
X004485Y010760D01*
X004368Y010643D01*
X004368Y009737D01*
X004396Y009709D02*
X003876Y009709D01*
X003381Y009709D02*
X003344Y009709D01*
X003344Y009867D02*
X003381Y009867D01*
X003344Y010184D02*
X001659Y010184D01*
X001659Y010343D02*
X002813Y010343D01*
X002813Y010501D02*
X001659Y010501D01*
X001659Y010660D02*
X002843Y010660D01*
X003344Y010660D02*
X003381Y010660D01*
X003381Y010501D02*
X003344Y010501D01*
X003344Y010343D02*
X003381Y010343D01*
X003913Y010343D02*
X004368Y010343D01*
X004368Y010501D02*
X003913Y010501D01*
X003883Y010660D02*
X004385Y010660D01*
X005491Y010660D02*
X005960Y010660D01*
X005943Y010501D02*
X005508Y010501D01*
X005508Y010343D02*
X005943Y010343D01*
X005943Y010184D02*
X005508Y010184D01*
X005508Y010026D02*
X005943Y010026D01*
X005943Y009867D02*
X005508Y009867D01*
X005479Y009709D02*
X005971Y009709D01*
X007549Y008448D02*
X007818Y008717D01*
X008199Y008717D01*
X008469Y008448D01*
X008469Y008066D01*
X008199Y007797D01*
X007818Y007797D01*
X007549Y008066D01*
X007549Y008448D01*
X007549Y008440D02*
X003240Y008440D01*
X003268Y008599D02*
X007700Y008599D01*
X007549Y008282D02*
X003198Y008282D01*
X003119Y008123D02*
X007549Y008123D01*
X007650Y007965D02*
X003025Y007965D01*
X002866Y007806D02*
X007809Y007806D01*
X007794Y007662D02*
X007525Y007392D01*
X007525Y007011D01*
X007794Y006742D01*
X008176Y006742D01*
X008445Y007011D01*
X008445Y007392D01*
X008176Y007662D01*
X007794Y007662D01*
X007780Y007648D02*
X007105Y007648D01*
X007118Y007635D02*
X007001Y007752D01*
X006095Y007752D01*
X005978Y007635D01*
X005978Y006729D01*
X006095Y006612D01*
X007001Y006612D01*
X007118Y006729D01*
X007118Y007635D01*
X007118Y007489D02*
X007622Y007489D01*
X007525Y007331D02*
X007118Y007331D01*
X007118Y007172D02*
X007525Y007172D01*
X007525Y007014D02*
X007118Y007014D01*
X007118Y006855D02*
X007681Y006855D01*
X007789Y006538D02*
X001699Y006538D01*
X001699Y006696D02*
X002861Y006696D01*
X002828Y006729D02*
X002946Y006612D01*
X003851Y006612D01*
X003968Y006729D01*
X003968Y007635D01*
X003851Y007752D01*
X002946Y007752D01*
X002828Y007635D01*
X002828Y006729D01*
X002828Y006855D02*
X001699Y006855D01*
X001699Y007014D02*
X002828Y007014D01*
X002828Y007172D02*
X001692Y007172D01*
X001626Y007331D02*
X002828Y007331D01*
X002828Y007489D02*
X001493Y007489D01*
X001493Y007648D02*
X001534Y007648D01*
X002633Y007648D02*
X002841Y007648D01*
X003956Y007648D02*
X004416Y007648D01*
X004403Y007635D02*
X004403Y006729D01*
X004520Y006612D01*
X005426Y006612D01*
X005543Y006729D01*
X005543Y007635D01*
X005426Y007752D01*
X004520Y007752D01*
X004403Y007635D01*
X004403Y007489D02*
X003968Y007489D01*
X003968Y007331D02*
X004403Y007331D01*
X004403Y007172D02*
X003968Y007172D01*
X003968Y007014D02*
X004403Y007014D01*
X004403Y006855D02*
X003968Y006855D01*
X003935Y006696D02*
X004436Y006696D01*
X005510Y006696D02*
X006011Y006696D01*
X005978Y006855D02*
X005543Y006855D01*
X005543Y007014D02*
X005978Y007014D01*
X005978Y007172D02*
X005543Y007172D01*
X005543Y007331D02*
X005978Y007331D01*
X005978Y007489D02*
X005543Y007489D01*
X005531Y007648D02*
X005991Y007648D01*
X007085Y006696D02*
X008928Y006696D01*
X009087Y006538D02*
X008244Y006538D01*
X008403Y006379D02*
X009245Y006379D01*
X009404Y006221D02*
X008476Y006221D01*
X008476Y006062D02*
X009562Y006062D01*
X009754Y005904D02*
X008455Y005904D01*
X008297Y005745D02*
X010736Y005745D01*
X011297Y005745D02*
X011844Y005745D01*
X011879Y005829D02*
X011809Y005660D01*
X011809Y004957D01*
X011879Y004788D01*
X012008Y004658D01*
X012177Y004588D01*
X012360Y004588D01*
X012529Y004658D01*
X012658Y004788D01*
X012728Y004957D01*
X012728Y005660D01*
X012658Y005829D01*
X012529Y005958D01*
X012360Y006028D01*
X012177Y006028D01*
X012008Y005958D01*
X011879Y005829D01*
X011954Y005904D02*
X011455Y005904D01*
X011476Y006062D02*
X014019Y006062D01*
X013971Y006221D02*
X011476Y006221D01*
X011403Y006379D02*
X013812Y006379D01*
X013654Y006538D02*
X011244Y006538D01*
X010789Y006538D02*
X009794Y006538D01*
X009635Y006696D02*
X013495Y006696D01*
X013337Y006855D02*
X011289Y006855D01*
X010681Y006855D02*
X009477Y006855D01*
X009318Y007014D02*
X010525Y007014D01*
X010525Y007172D02*
X009223Y007172D01*
X009223Y007331D02*
X010525Y007331D01*
X010622Y007489D02*
X009223Y007489D01*
X009223Y007648D02*
X010780Y007648D01*
X010809Y007806D02*
X009223Y007806D01*
X009223Y007965D02*
X010650Y007965D01*
X010549Y008123D02*
X009223Y008123D01*
X008723Y008123D02*
X008469Y008123D01*
X008469Y008282D02*
X008723Y008282D01*
X008723Y008440D02*
X008469Y008440D01*
X008317Y008599D02*
X008723Y008599D01*
X008723Y008757D02*
X003268Y008757D01*
X003251Y008916D02*
X008723Y008916D01*
X008723Y009075D02*
X003209Y009075D01*
X003142Y009233D02*
X008723Y009233D01*
X008723Y009392D02*
X003050Y009392D01*
X008208Y007806D02*
X008723Y007806D01*
X008723Y007648D02*
X008190Y007648D01*
X008348Y007489D02*
X008723Y007489D01*
X008723Y007331D02*
X008445Y007331D01*
X008445Y007172D02*
X008723Y007172D01*
X008723Y007014D02*
X008445Y007014D01*
X008289Y006855D02*
X008770Y006855D01*
X007630Y006379D02*
X001699Y006379D01*
X001699Y006221D02*
X007557Y006221D01*
X007557Y006062D02*
X001699Y006062D01*
X001699Y005904D02*
X007578Y005904D01*
X007736Y005745D02*
X001699Y005745D01*
X001699Y005587D02*
X007767Y005587D01*
X007793Y005428D02*
X001699Y005428D01*
X001699Y005270D02*
X007934Y005270D01*
X008093Y005111D02*
X001699Y005111D01*
X001699Y004952D02*
X008251Y004952D01*
X008410Y004794D02*
X001699Y004794D01*
X001699Y004635D02*
X008529Y004635D01*
X008530Y004477D02*
X001699Y004477D01*
X001699Y004318D02*
X008532Y004318D01*
X008676Y004160D02*
X007843Y004160D01*
X007808Y004195D02*
X007021Y004195D01*
X006464Y003639D01*
X006464Y002852D01*
X007021Y002295D01*
X007808Y002295D01*
X008364Y002852D01*
X008364Y003639D01*
X007808Y004195D01*
X008002Y004001D02*
X011608Y004001D01*
X011436Y003843D02*
X008160Y003843D01*
X008319Y003684D02*
X011301Y003684D01*
X011235Y003526D02*
X008364Y003526D01*
X008364Y003367D02*
X011173Y003367D01*
X011173Y003208D02*
X008364Y003208D01*
X008364Y003050D02*
X011173Y003050D01*
X011217Y002891D02*
X008364Y002891D01*
X008245Y002733D02*
X011282Y002733D01*
X011391Y002574D02*
X008087Y002574D01*
X007928Y002416D02*
X011550Y002416D01*
X011883Y002257D02*
X001704Y002257D01*
X001699Y002416D02*
X002018Y002416D01*
X001860Y002574D02*
X001699Y002574D01*
X001699Y002733D02*
X001701Y002733D01*
X003046Y002416D02*
X006900Y002416D01*
X006742Y002574D02*
X003205Y002574D01*
X003363Y002733D02*
X006583Y002733D01*
X006464Y002891D02*
X003482Y002891D01*
X003482Y003050D02*
X006464Y003050D01*
X006464Y003208D02*
X003482Y003208D01*
X003482Y003367D02*
X006464Y003367D01*
X006464Y003526D02*
X003482Y003526D01*
X003437Y003684D02*
X006510Y003684D01*
X006668Y003843D02*
X003278Y003843D01*
X003120Y004001D02*
X006827Y004001D01*
X006985Y004160D02*
X002961Y004160D01*
X002103Y004160D02*
X001699Y004160D01*
X001699Y004001D02*
X001945Y004001D01*
X001786Y003843D02*
X001699Y003843D01*
X001983Y001623D02*
X013629Y001623D01*
X013709Y001623D02*
X014099Y001623D01*
X014056Y001464D02*
X014155Y001464D01*
X016311Y001464D02*
X016410Y001464D01*
X016367Y001623D02*
X016757Y001623D01*
X016837Y001623D02*
X028757Y001623D01*
X028949Y001782D02*
X016410Y001782D01*
X016417Y001940D02*
X029022Y001940D01*
X029043Y002099D02*
X016417Y002099D01*
X016381Y002257D02*
X017930Y002257D01*
X017652Y002416D02*
X016338Y002416D01*
X016249Y002574D02*
X017494Y002574D01*
X017408Y002733D02*
X016141Y002733D01*
X015479Y003367D02*
X014935Y003367D01*
X015021Y003526D02*
X015401Y003526D01*
X015401Y003684D02*
X015021Y003684D01*
X015021Y003843D02*
X015401Y003843D01*
X015401Y004001D02*
X015021Y004001D01*
X014977Y004160D02*
X015437Y004160D01*
X015595Y004318D02*
X014819Y004318D01*
X014660Y004477D02*
X015754Y004477D01*
X015063Y004635D02*
X014474Y004635D01*
X014661Y004794D02*
X014876Y004794D01*
X014810Y004952D02*
X014727Y004952D01*
X014728Y005111D02*
X014809Y005111D01*
X014809Y005270D02*
X014728Y005270D01*
X014728Y005428D02*
X014809Y005428D01*
X014809Y005587D02*
X014728Y005587D01*
X014693Y005745D02*
X014844Y005745D01*
X014954Y005904D02*
X014583Y005904D01*
X013954Y005904D02*
X013583Y005904D01*
X013693Y005745D02*
X013844Y005745D01*
X013809Y005587D02*
X013728Y005587D01*
X013728Y005428D02*
X013809Y005428D01*
X013809Y005270D02*
X013728Y005270D01*
X013728Y005111D02*
X013809Y005111D01*
X013810Y004952D02*
X013727Y004952D01*
X013661Y004794D02*
X013876Y004794D01*
X012876Y004794D02*
X012661Y004794D01*
X012727Y004952D02*
X012810Y004952D01*
X012809Y005111D02*
X012728Y005111D01*
X012728Y005270D02*
X012809Y005270D01*
X012809Y005428D02*
X012728Y005428D01*
X012728Y005587D02*
X012809Y005587D01*
X012844Y005745D02*
X012693Y005745D01*
X012583Y005904D02*
X012954Y005904D01*
X011809Y005587D02*
X008324Y005587D01*
X008483Y005428D02*
X011809Y005428D01*
X011809Y005270D02*
X008641Y005270D01*
X008800Y005111D02*
X011809Y005111D01*
X011810Y004952D02*
X010333Y004952D01*
X010480Y004794D02*
X011876Y004794D01*
X012063Y004635D02*
X010830Y004635D01*
X010599Y004160D02*
X010397Y004160D01*
X009683Y004160D02*
X009404Y004160D01*
X009552Y004318D02*
X009573Y004318D01*
X009600Y004794D02*
X009486Y004794D01*
X009325Y004952D02*
X009747Y004952D01*
X012474Y004635D02*
X012825Y004635D01*
X008723Y007965D02*
X008367Y007965D01*
X010446Y008282D02*
X010549Y008282D01*
X016190Y009550D02*
X016190Y009550D01*
X016190Y009709D02*
X016190Y009709D01*
X016190Y009867D02*
X016190Y009867D01*
X016922Y008916D02*
X016966Y008916D01*
X018511Y009075D02*
X019267Y009075D01*
X019108Y009233D02*
X018670Y009233D01*
X018571Y008916D02*
X019425Y008916D01*
X019584Y008757D02*
X018688Y008757D01*
X019657Y009392D02*
X019900Y009392D01*
X019900Y009233D02*
X019815Y009233D01*
X019961Y009550D02*
X019498Y009550D01*
X019323Y009709D02*
X020093Y009709D01*
X020960Y009233D02*
X027567Y009233D01*
X027476Y009075D02*
X020912Y009075D01*
X020799Y008916D02*
X027433Y008916D01*
X027677Y009392D02*
X026714Y009392D01*
X026627Y009356D02*
X026881Y009461D01*
X027076Y009656D01*
X027181Y009910D01*
X027181Y010186D01*
X027076Y010440D01*
X026881Y010635D01*
X026627Y010740D01*
X026351Y010740D01*
X026097Y010635D01*
X025902Y010440D01*
X025797Y010186D01*
X025797Y009910D01*
X025902Y009656D01*
X026097Y009461D01*
X026351Y009356D01*
X026627Y009356D01*
X026265Y009392D02*
X024934Y009392D01*
X025190Y009550D02*
X026008Y009550D01*
X025880Y009709D02*
X025318Y009709D01*
X025384Y009867D02*
X025815Y009867D01*
X025797Y010026D02*
X025401Y010026D01*
X025401Y010184D02*
X025797Y010184D01*
X025862Y010343D02*
X025336Y010343D01*
X025234Y010501D02*
X025964Y010501D01*
X026158Y010660D02*
X025040Y010660D01*
X026820Y010660D02*
X029043Y010660D01*
X029043Y010501D02*
X027014Y010501D01*
X027116Y010343D02*
X029043Y010343D01*
X029034Y010184D02*
X027181Y010184D01*
X027181Y010026D02*
X029050Y010026D01*
X029116Y009867D02*
X027164Y009867D01*
X027098Y009709D02*
X028098Y009709D01*
X027836Y009550D02*
X026970Y009550D01*
X029061Y009709D02*
X029257Y009709D01*
X029323Y009550D02*
X029446Y009550D01*
X029441Y007806D02*
X029446Y007806D01*
X029446Y007648D02*
X029265Y007648D01*
X029256Y007489D02*
X028938Y007489D01*
X024191Y003694D02*
X023634Y004250D01*
X022847Y004250D01*
X022291Y003694D01*
X022291Y002907D01*
X022847Y002350D01*
X023634Y002350D01*
X024191Y002907D01*
X024191Y003694D01*
X024191Y003684D02*
X027173Y003684D01*
X027173Y003526D02*
X024191Y003526D01*
X024191Y003367D02*
X027173Y003367D01*
X027173Y003208D02*
X024191Y003208D01*
X024191Y003050D02*
X027173Y003050D01*
X027188Y002891D02*
X024175Y002891D01*
X024017Y002733D02*
X027347Y002733D01*
X027505Y002574D02*
X023858Y002574D01*
X023700Y002416D02*
X027664Y002416D01*
X028582Y002416D02*
X029043Y002416D01*
X029043Y002574D02*
X028740Y002574D01*
X028899Y002733D02*
X029043Y002733D01*
X029043Y002257D02*
X018599Y002257D01*
X018877Y002416D02*
X022782Y002416D01*
X022623Y002574D02*
X019036Y002574D01*
X019121Y002733D02*
X022465Y002733D01*
X022306Y002891D02*
X019187Y002891D01*
X019215Y003050D02*
X022291Y003050D01*
X022291Y003208D02*
X019215Y003208D01*
X019202Y003367D02*
X022291Y003367D01*
X022291Y003526D02*
X019136Y003526D01*
X019070Y003684D02*
X022291Y003684D01*
X022440Y003843D02*
X018912Y003843D01*
X018684Y004001D02*
X022598Y004001D01*
X022757Y004160D02*
X019316Y004160D01*
X023725Y004160D02*
X027639Y004160D01*
X027480Y004001D02*
X023884Y004001D01*
X024042Y003843D02*
X027322Y003843D01*
X026283Y014306D02*
X024916Y014306D01*
X025183Y014465D02*
X026015Y014465D01*
X025884Y014624D02*
X025315Y014624D01*
X025380Y014782D02*
X025818Y014782D01*
X025797Y014941D02*
X025401Y014941D01*
X025401Y015099D02*
X025797Y015099D01*
X025859Y015258D02*
X025339Y015258D01*
X025242Y015416D02*
X025957Y015416D01*
D25*
X018265Y003147D03*
X012123Y003186D03*
D26*
X015233Y001966D03*
X002083Y008698D03*
X028580Y008619D03*
M02*
