G75*
G70*
%OFA0B0*%
%FSLAX24Y24*%
%IPPOS*%
%LPD*%
%AMOC8*
5,1,8,0,0,1.08239X$1,22.5*
%
%ADD10C,0.0600*%
%ADD11OC8,0.0600*%
%ADD12OC8,0.0710*%
%ADD13C,0.0140*%
%ADD14C,0.0700*%
%ADD15OC8,0.1320*%
%ADD16C,0.1064*%
%ADD17R,0.0820X0.0820*%
%ADD18OC8,0.1580*%
%ADD19C,0.0940*%
%ADD20C,0.0730*%
%ADD21C,0.0740*%
%ADD22C,0.0120*%
%ADD23C,0.1580*%
%ADD24C,0.2049*%
D10*
X012269Y005048D02*
X012269Y005568D01*
X013269Y005568D02*
X013269Y005048D01*
X014269Y005048D02*
X014269Y005568D01*
X015269Y005568D02*
X015269Y005048D01*
X016269Y005048D02*
X016269Y005568D01*
X017269Y005568D02*
X017269Y005048D01*
X018269Y005048D02*
X018269Y005568D01*
X018269Y008048D02*
X018269Y008568D01*
X017269Y008568D02*
X017269Y008048D01*
X016269Y008048D02*
X016269Y008568D01*
X015269Y008568D02*
X015269Y008048D01*
X014269Y008048D02*
X014269Y008568D01*
X013269Y008568D02*
X013269Y008048D01*
X012269Y008048D02*
X012269Y008568D01*
D11*
X011009Y008257D03*
X010985Y007202D03*
X011017Y006115D03*
X008017Y006115D03*
X007985Y007202D03*
X008009Y008257D03*
X011772Y010702D03*
X014772Y010702D03*
X015686Y010737D03*
X018686Y010737D03*
X019442Y008265D03*
X022442Y008265D03*
X020898Y014989D03*
X019898Y014989D03*
D12*
X018190Y009481D03*
X016190Y009481D03*
X014269Y009481D03*
X012269Y009481D03*
D13*
X008830Y004560D02*
X008760Y004630D01*
X008924Y004796D01*
X009153Y004797D01*
X009319Y004633D01*
X009320Y004404D01*
X009156Y004238D01*
X008927Y004237D01*
X008761Y004401D01*
X008760Y004630D01*
X008865Y004587D01*
X008967Y004691D01*
X009110Y004692D01*
X009214Y004590D01*
X009215Y004447D01*
X009113Y004343D01*
X008970Y004342D01*
X008866Y004444D01*
X008865Y004587D01*
X008970Y004544D01*
X009012Y004586D01*
X009067Y004587D01*
X009109Y004545D01*
X009110Y004490D01*
X009068Y004448D01*
X009013Y004447D01*
X008971Y004489D01*
X008970Y004544D01*
D14*
X010040Y004524D03*
D15*
X014221Y003785D03*
X016221Y003785D03*
D16*
X024709Y010048D03*
X026489Y010048D03*
X026489Y014970D03*
X024709Y014970D03*
D17*
X024107Y007237D03*
X025682Y007237D03*
X027257Y007237D03*
X006548Y007182D03*
X004973Y007182D03*
X003398Y007182D03*
X003363Y010190D03*
X004938Y010190D03*
X006513Y010190D03*
D18*
X002532Y003245D03*
X007414Y003245D03*
X023241Y003300D03*
X028123Y003300D03*
X007379Y014127D03*
X002497Y014127D03*
D19*
X013225Y012674D03*
X014209Y012674D03*
X016178Y012674D03*
X017162Y012674D03*
X015194Y014643D03*
D20*
X010322Y012296D02*
X009672Y012296D01*
X009672Y011296D02*
X010322Y011296D01*
X010322Y010296D02*
X009672Y010296D01*
X020105Y010296D02*
X020755Y010296D01*
X020755Y011296D02*
X020105Y011296D01*
X020105Y012296D02*
X020755Y012296D01*
D21*
X020430Y013296D03*
X020430Y009296D03*
X009997Y009296D03*
X009997Y013296D03*
D22*
X009500Y015133D02*
X009440Y015193D01*
X009639Y015194D01*
X009780Y015055D01*
X009781Y014856D01*
X009642Y014715D01*
X009443Y014714D01*
X009302Y014853D01*
X009301Y015052D01*
X009440Y015193D01*
X009478Y015103D01*
X009602Y015104D01*
X009690Y015017D01*
X009691Y014893D01*
X009604Y014805D01*
X009480Y014804D01*
X009392Y014891D01*
X009391Y015015D01*
X009478Y015103D01*
X009516Y015013D01*
X009566Y015013D01*
X009600Y014979D01*
X009600Y014929D01*
X009566Y014895D01*
X009516Y014895D01*
X009482Y014929D01*
X009482Y014979D01*
X009516Y015013D01*
X010490Y015140D02*
X010430Y015200D01*
X010629Y015201D01*
X010770Y015062D01*
X010771Y014863D01*
X010632Y014722D01*
X010433Y014721D01*
X010292Y014860D01*
X010291Y015059D01*
X010430Y015200D01*
X010468Y015110D01*
X010592Y015111D01*
X010680Y015024D01*
X010681Y014900D01*
X010594Y014812D01*
X010470Y014811D01*
X010382Y014898D01*
X010381Y015022D01*
X010468Y015110D01*
X010506Y015020D01*
X010556Y015020D01*
X010590Y014986D01*
X010590Y014936D01*
X010556Y014902D01*
X010506Y014902D01*
X010472Y014936D01*
X010472Y014986D01*
X010506Y015020D01*
D23*
X012123Y003186D03*
X018265Y003147D03*
D24*
X015233Y001966D03*
X002083Y008698D03*
X028580Y008619D03*
M02*
