%
M48
M72
T01C0.0320
T02C0.0394
T03C0.0433
T04C0.0440
T05C0.0512
T06C0.0591
T07C0.0787
T08C0.1024
T09C0.1181
%
T01
X9040Y4517
X10040Y4524
X12269Y5308
X13269Y5308
X14269Y5308
X15269Y5308
X16269Y5308
X17269Y5308
X18269Y5308
X18269Y8308
X17269Y8308
X16269Y8308
X15269Y8308
X14269Y8308
X13269Y8308
X12269Y8308
X11009Y8257
X10985Y7202
X11017Y6115
X8017Y6115
X7985Y7202
X8009Y8257
X12269Y9481
X14269Y9481
X16190Y9481
X15686Y10737
X14772Y10702
X11772Y10702
X18190Y9481
X18686Y10737
X19442Y8265
X22442Y8265
X20898Y14989
X19898Y14989
X10531Y14961
X9541Y14954
T02
X6513Y10190
X4938Y10190
X3363Y10190
X3398Y7182
X4973Y7182
X6548Y7182
X24107Y7237
X25682Y7237
X27257Y7237
T03
X20430Y9296
X20430Y10296
X20430Y11296
X20430Y12296
X20430Y13296
X9997Y13296
X9997Y12296
X9997Y11296
X9997Y10296
X9997Y9296
T04
X14221Y3785
X16221Y3785
T05
X16178Y12674
X17162Y12674
X14209Y12674
X13225Y12674
X15194Y14643
T06
X24709Y14970
X26489Y14970
X26489Y10048
X24709Y10048
T07
X18265Y3147
X12123Y3186
T08
X2532Y3245
X7414Y3245
X23241Y3300
X28123Y3300
X7379Y14127
X2497Y14127
T09
X2083Y8698
X15233Y1966
X28580Y8619
M30
